<?xml version="1.0" encoding="UTF-8" standalone="no"?>
<!-- Created with Inkscape (http://www.inkscape.org/) -->

<svg
   xmlns:dc="http://purl.org/dc/elements/1.1/"
   xmlns:cc="http://creativecommons.org/ns#"
   xmlns:rdf="http://www.w3.org/1999/02/22-rdf-syntax-ns#"
   xmlns:svg="http://www.w3.org/2000/svg"
   xmlns="http://www.w3.org/2000/svg"
   xmlns:sodipodi="http://sodipodi.sourceforge.net/DTD/sodipodi-0.dtd"
   xmlns:inkscape="http://www.inkscape.org/namespaces/inkscape"
   width="744.09448"
   height="1052.3622"
   id="svg2"
   version="1.1"
   inkscape:version="0.48.4 r9939"
   sodipodi:docname="RasPiRobot_mk2.dxf">
  <defs
     id="defs4" />
  <sodipodi:namedview
     id="base"
     pagecolor="#ffffff"
     bordercolor="#666666"
     borderopacity="1.0"
     inkscape:pageopacity="0.0"
     inkscape:pageshadow="2"
     inkscape:zoom="0.32757798"
     inkscape:cx="1033.2914"
     inkscape:cy="719.61997"
     inkscape:document-units="mm"
     inkscape:current-layer="layer1"
     showgrid="false"
     inkscape:snap-bbox="true"
     inkscape:snap-center="true"
     inkscape:snap-object-midpoints="true"
     showguides="true"
     inkscape:guide-bbox="true"
     inkscape:snap-bbox-midpoints="true"
     inkscape:object-nodes="true"
     inkscape:snap-smooth-nodes="true"
     inkscape:snap-midpoints="true"
     inkscape:window-width="1920"
     inkscape:window-height="1058"
     inkscape:window-x="-8"
     inkscape:window-y="-8"
     inkscape:window-maximized="1"
     units="mm" />
  <metadata
     id="metadata7">
    <rdf:RDF>
      <cc:Work
         rdf:about="">
        <dc:format>image/svg+xml</dc:format>
        <dc:type
           rdf:resource="http://purl.org/dc/dcmitype/StillImage" />
        <dc:title></dc:title>
      </cc:Work>
    </rdf:RDF>
  </metadata>
  <g
     inkscape:label="Layer 1"
     inkscape:groupmode="layer"
     id="layer1"
     transform="translate(0,-8.277559e-5)">
    <g
       id="g3069"
       transform="translate(-27.093283,393.96883)">
      <path
         inkscape:connector-curvature="0"
         id="rect2985"
         d="m 346.58928,135.7415 388.9909,0 c 9.81682,0 17.7199,7.90158 17.7199,17.71654 l 0,389.46506 c 0,9.81496 -7.90308,17.71653 -17.7199,17.71653 l -388.9909,0 c -9.81682,0 -17.7199,-7.90157 -17.7199,-17.71653 l 0,-389.46506 c 0,-9.81496 7.90308,-17.71654 17.7199,-17.71654 z"
         style="fill:none;stroke:#000000;stroke-width:0.35249999;stroke-miterlimit:4;stroke-opacity:1" />
      <g
         style="stroke-width:0.99921262;stroke-miterlimit:4;stroke-dasharray:none"
         transform="translate(-446.25361,-588.52006)"
         id="g3059">
        <path
           sodipodi:nodetypes="cccccccccccc"
           inkscape:connector-curvature="0"
           style="fill:none;stroke:#000000;stroke-width:0.99921262;stroke-miterlimit:4;stroke-dasharray:none"
           d="m 612.4265,924.75798 0,9.6681 123.4103,0 -0.1896,-9.8576 16.8718,0.1895 0,-77.91339 -18.0092,0.3792 -0.1895,-10.4264 -123.2208,0 0,10.2368 -10.92259,0 0,77.91339"
           id="path3009" />
        <path
           inkscape:connector-curvature="0"
           style="fill:none;stroke:#000000;stroke-width:0.99921262;stroke-miterlimit:4;stroke-dasharray:none"
           d="m 632.5469,854.60779 c -0.1443,0.926 -0.2887,1.852 -0.7171,2.6512 -0.4158,0.7755 -1.0989,1.4317 -1.8845,1.8844 -0.8097,0.4666 -1.7281,0.7172 -2.6513,0.7172 -0.9232,0 -1.8513,-0.2506 -2.6512,-0.7172 -0.7763,-0.4527 -1.4319,-1.1089 -1.8845,-1.8844 -0.4664,-0.7992 -0.7172,-1.7252 -0.7172,-2.6512 0,-0.926 0.2508,-1.852 0.7172,-2.6512 0.4526,-0.7755 1.1082,-1.4317 1.8845,-1.8844 0.7999,-0.4666 1.728,-0.7172 2.6512,-0.7172 0.9232,0 1.8416,0.2506 2.6513,0.7172 0.7856,0.4527 1.4687,1.1089 1.8845,1.8844 0.4284,0.7992 0.5728,1.7252 0.7171,2.6512"
           id="path3011" />
        <path
           inkscape:connector-curvature="0"
           style="fill:none;stroke:#000000;stroke-width:0.99921262;stroke-miterlimit:4;stroke-dasharray:none"
           d="m 632.5469,854.60779 0,0"
           id="path3013" />
        <path
           inkscape:connector-curvature="0"
           style="fill:none;stroke:#000000;stroke-width:0.99921262;stroke-miterlimit:4;stroke-dasharray:none"
           d="m 632.5469,916.61568 0,0"
           id="path3015" />
        <path
           inkscape:connector-curvature="0"
           style="fill:none;stroke:#000000;stroke-width:0.99921262;stroke-miterlimit:4;stroke-dasharray:none"
           d="m 632.5469,916.61568 c -0.1443,0.926 -0.2887,1.852 -0.7171,2.6512 -0.4158,0.7755 -1.0989,1.4317 -1.8845,1.8844 -0.8097,0.4666 -1.7281,0.7172 -2.6513,0.7172 -0.9232,0 -1.8513,-0.2506 -2.6512,-0.7172 -0.7763,-0.4527 -1.4319,-1.1089 -1.8845,-1.8844 -0.4664,-0.7992 -0.7172,-1.7252 -0.7172,-2.6512 0,-0.926 0.2508,-1.852 0.7172,-2.6512 0.4526,-0.7755 1.1082,-1.4317 1.8845,-1.8845 0.7999,-0.4666 1.728,-0.71709 2.6512,-0.71709 0.9232,0 1.8416,0.25049 2.6513,0.71709 0.7856,0.4528 1.4687,1.109 1.8845,1.8845 0.4284,0.7992 0.5728,1.7252 0.7171,2.6512"
           id="path3019" />
        <path
           inkscape:connector-curvature="0"
           style="fill:none;stroke:#000000;stroke-width:0.99921262;stroke-miterlimit:4;stroke-dasharray:none"
           d="m 711.8343,882.96659 c -0.1416,1.3993 -0.2831,2.7986 -0.7245,4.1128 -0.435,1.2953 -1.1614,2.508 -2.0555,3.5663 -0.9071,1.0736 -1.9868,1.9884 -3.1955,2.6884 -1.2088,0.7001 -2.5465,1.1853 -3.9251,1.4262 -1.3588,0.2374 -2.7574,0.2374 -4.1162,0 -1.3786,-0.2409 -2.7163,-0.7261 -3.9251,-1.4262 -1.2087,-0.7 -2.2884,-1.6148 -3.1955,-2.6884 -0.8941,-1.0583 -1.6205,-2.271 -2.0555,-3.5663 -0.4414,-1.3142 -0.5829,-2.7135 -0.7245,-4.1128"
           id="path3259" />
        <path
           inkscape:connector-curvature="0"
           style="fill:none;stroke:#000000;stroke-width:0.99921262;stroke-miterlimit:4;stroke-dasharray:none"
           d="m 687.9169,882.96659 c 0.1416,-1.3993 0.2831,-2.7986 0.7245,-4.1128 0.435,-1.2953 1.1614,-2.508 2.0555,-3.5663 0.9071,-1.0737 1.9868,-1.9885 3.1955,-2.6885 1.2088,-0.7 2.5465,-1.1852 3.9251,-1.4261 1.3588,-0.2374 2.7574,-0.2374 4.1162,0 1.3786,0.2409 2.7163,0.7261 3.9251,1.4261 1.2087,0.7 2.2884,1.6148 3.1955,2.6885 0.8941,1.0583 1.6205,2.271 2.0555,3.5663 0.4414,1.3142 0.5829,2.7135 0.7245,4.1128"
           id="path3263" />
        <path
           inkscape:connector-curvature="0"
           style="fill:none;stroke:#000000;stroke-width:0.99921262;stroke-miterlimit:4;stroke-dasharray:none"
           d="m 711.8343,882.96659 0,0"
           id="path3265" />
      </g>
      <path
         inkscape:connector-curvature="0"
         id="rect3049"
         d="m 558.00037,205.8118 124.01574,0 0,11.33858 -124.01574,0 z"
         style="fill:none;stroke:#000000;stroke-width:0.35249999;stroke-miterlimit:4;stroke-opacity:1" />
      <path
         inkscape:connector-curvature="0"
         id="rect3051"
         d="m 558.00037,477.15326 124.01574,0 0,11.33858 -124.01574,0 z"
         style="fill:none;stroke:#000000;stroke-width:0.35249999;stroke-miterlimit:4;stroke-opacity:1" />
      <path
         inkscape:connector-curvature="0"
         id="rect3070"
         d="m 62.700869,-296.21494 672.835771,0 c 9.81683,0 17.7199,7.90158 17.7199,17.71654 l 0,389.37793 c 0,9.81496 -7.90307,17.71654 -17.7199,17.71654 l -672.835771,0 c -9.816825,0 -17.719901,-7.90158 -17.719901,-17.71654 l 0,-389.37793 c 0,-9.81496 7.903076,-17.71654 17.719901,-17.71654 z"
         style="fill:none;stroke:#000000;stroke-width:0.35249999;stroke-miterlimit:4;stroke-opacity:1" />
      <path
         inkscape:connector-curvature="0"
         id="rect3072"
         d="m 558.00037,-226.1882 124.01574,0 0,11.33858 -124.01574,0 z"
         style="fill:none;stroke:#000000;stroke-width:0.35249999;stroke-miterlimit:4;stroke-opacity:1" />
      <path
         inkscape:connector-curvature="0"
         id="rect3074"
         d="m 558.00037,45.153259 124.01574,0 0,11.338583 -124.01574,0 z"
         style="fill:none;stroke:#000000;stroke-width:0.35249999;stroke-miterlimit:4;stroke-opacity:1" />
      <path
         transform="matrix(0.57997395,0,0,0.57997395,385.26924,-1937.6736)"
         inkscape:connector-curvature="0"
         id="path3860"
         d="m -312.64133,3196.4612 c 0,16.7734 -13.59751,30.3709 -30.37088,30.3709 -16.77337,0 -30.37087,-13.5975 -30.37087,-30.3709 0,-16.7734 13.5975,-30.3709 30.37087,-30.3709 16.77337,0 30.37088,13.5975 30.37088,30.3709 z"
         style="fill:none;stroke:#000000;stroke-width:0.35249999;stroke-miterlimit:4;stroke-opacity:1" />
      <g
         transform="matrix(0,1,-1,0,993.38533,444.15508)"
         id="g3925">
        <path
           inkscape:connector-curvature="0"
           id="path3927"
           d="m -480.12776,3364.8408 c 0,5.18 -3.7993,9.3793 -8.48598,9.3793 -4.68668,0 -8.48598,-4.1993 -8.48598,-9.3793 0,-5.18 3.7993,-9.3792 8.48598,-9.3792 4.68668,0 8.48598,4.1992 8.48598,9.3792 z"
           style="fill:none;stroke:#000000;stroke-width:0.45508549;stroke-miterlimit:4;stroke-opacity:1"
           transform="matrix(0.81432727,0,0,0.73677229,53.986022,-2211.0423)" />
        <path
           inkscape:connector-curvature="0"
           id="path3929"
           d="m -480.12776,3364.8408 c 0,5.18 -3.7993,9.3793 -8.48598,9.3793 -4.68668,0 -8.48598,-4.1993 -8.48598,-9.3793 0,-5.18 3.7993,-9.3792 8.48598,-9.3792 4.68668,0 8.48598,4.1992 8.48598,9.3792 z"
           style="fill:none;stroke:#000000;stroke-width:0.45508549;stroke-miterlimit:4;stroke-opacity:1"
           transform="matrix(0.81432727,0,0,0.73677229,18.255582,-2211.0423)" />
      </g>
      <g
         id="g3931"
         transform="matrix(0,1,-1,0,993.38533,111.7674)">
        <path
           inkscape:connector-curvature="0"
           id="path3933"
           d="m -480.12776,3364.8408 c 0,5.18 -3.7993,9.3793 -8.48598,9.3793 -4.68668,0 -8.48598,-4.1993 -8.48598,-9.3793 0,-5.18 3.7993,-9.3792 8.48598,-9.3792 4.68668,0 8.48598,4.1992 8.48598,9.3792 z"
           style="fill:none;stroke:#000000;stroke-width:0.45508549;stroke-miterlimit:4;stroke-opacity:1"
           transform="matrix(0.81432727,0,0,0.73677229,53.986022,-2211.0423)" />
        <path
           inkscape:connector-curvature="0"
           id="path3935"
           d="m -480.12776,3364.8408 c 0,5.18 -3.7993,9.3793 -8.48598,9.3793 -4.68668,0 -8.48598,-4.1993 -8.48598,-9.3793 0,-5.18 3.7993,-9.3792 8.48598,-9.3792 4.68668,0 8.48598,4.1992 8.48598,9.3792 z"
           style="fill:none;stroke:#000000;stroke-width:0.45508549;stroke-miterlimit:4;stroke-opacity:1"
           transform="matrix(0.81432727,0,0,0.73677229,18.255582,-2211.0423)" />
      </g>
      <g
         id="g3945"
         transform="matrix(0,1,-1,0,684.69979,444.15508)">
        <path
           inkscape:connector-curvature="0"
           id="path3947"
           d="m -480.12776,3364.8408 c 0,5.18 -3.7993,9.3793 -8.48598,9.3793 -4.68668,0 -8.48598,-4.1993 -8.48598,-9.3793 0,-5.18 3.7993,-9.3792 8.48598,-9.3792 4.68668,0 8.48598,4.1992 8.48598,9.3792 z"
           style="fill:none;stroke:#000000;stroke-width:0.45508549;stroke-miterlimit:4;stroke-opacity:1"
           transform="matrix(0.81432727,0,0,0.73677229,53.986022,-2211.0423)" />
        <path
           inkscape:connector-curvature="0"
           id="path3949"
           d="m -480.12776,3364.8408 c 0,5.18 -3.7993,9.3793 -8.48598,9.3793 -4.68668,0 -8.48598,-4.1993 -8.48598,-9.3793 0,-5.18 3.7993,-9.3792 8.48598,-9.3792 4.68668,0 8.48598,4.1992 8.48598,9.3792 z"
           style="fill:none;stroke:#000000;stroke-width:0.45508549;stroke-miterlimit:4;stroke-opacity:1"
           transform="matrix(0.81432727,0,0,0.73677229,18.255582,-2211.0423)" />
      </g>
      <g
         transform="matrix(0,1,-1,0,685.38533,111.7674)"
         id="g3951">
        <path
           inkscape:connector-curvature="0"
           id="path3953"
           d="m -480.12776,3364.8408 c 0,5.18 -3.7993,9.3793 -8.48598,9.3793 -4.68668,0 -8.48598,-4.1993 -8.48598,-9.3793 0,-5.18 3.7993,-9.3792 8.48598,-9.3792 4.68668,0 8.48598,4.1992 8.48598,9.3792 z"
           style="fill:none;stroke:#000000;stroke-width:0.45508549;stroke-miterlimit:4;stroke-opacity:1"
           transform="matrix(0.81432727,0,0,0.73677229,53.986022,-2211.0423)" />
        <path
           inkscape:connector-curvature="0"
           id="path3955"
           d="m -480.12776,3364.8408 c 0,5.18 -3.7993,9.3793 -8.48598,9.3793 -4.68668,0 -8.48598,-4.1993 -8.48598,-9.3793 0,-5.18 3.7993,-9.3792 8.48598,-9.3792 4.68668,0 8.48598,4.1992 8.48598,9.3792 z"
           style="fill:none;stroke:#000000;stroke-width:0.45508549;stroke-miterlimit:4;stroke-opacity:1"
           transform="matrix(0.81432727,0,0,0.73677229,18.255582,-2211.0423)" />
      </g>
      <g
         id="g3957"
         transform="matrix(0,1,-1,0,993.38533,876.11155)">
        <path
           inkscape:connector-curvature="0"
           id="path3959"
           d="m -480.12776,3364.8408 c 0,5.18 -3.7993,9.3793 -8.48598,9.3793 -4.68668,0 -8.48598,-4.1993 -8.48598,-9.3793 0,-5.18 3.7993,-9.3792 8.48598,-9.3792 4.68668,0 8.48598,4.1992 8.48598,9.3792 z"
           style="fill:none;stroke:#000000;stroke-width:0.45508549;stroke-miterlimit:4;stroke-opacity:1"
           transform="matrix(0.81432727,0,0,0.73677229,53.986022,-2211.0423)" />
        <path
           inkscape:connector-curvature="0"
           id="path3961"
           d="m -480.12776,3364.8408 c 0,5.18 -3.7993,9.3793 -8.48598,9.3793 -4.68668,0 -8.48598,-4.1993 -8.48598,-9.3793 0,-5.18 3.7993,-9.3792 8.48598,-9.3792 4.68668,0 8.48598,4.1992 8.48598,9.3792 z"
           style="fill:none;stroke:#000000;stroke-width:0.45508549;stroke-miterlimit:4;stroke-opacity:1"
           transform="matrix(0.81432727,0,0,0.73677229,18.255582,-2211.0423)" />
      </g>
      <g
         transform="matrix(0,1,-1,0,993.38533,543.72387)"
         id="g3963">
        <path
           inkscape:connector-curvature="0"
           id="path3965"
           d="m -480.12776,3364.8408 c 0,5.18 -3.7993,9.3793 -8.48598,9.3793 -4.68668,0 -8.48598,-4.1993 -8.48598,-9.3793 0,-5.18 3.7993,-9.3792 8.48598,-9.3792 4.68668,0 8.48598,4.1992 8.48598,9.3792 z"
           style="fill:none;stroke:#000000;stroke-width:0.45508549;stroke-miterlimit:4;stroke-opacity:1"
           transform="matrix(0.81432727,0,0,0.73677229,53.986022,-2211.0423)" />
        <path
           inkscape:connector-curvature="0"
           id="path3967"
           d="m -480.12776,3364.8408 c 0,5.18 -3.7993,9.3793 -8.48598,9.3793 -4.68668,0 -8.48598,-4.1993 -8.48598,-9.3793 0,-5.18 3.7993,-9.3792 8.48598,-9.3792 4.68668,0 8.48598,4.1992 8.48598,9.3792 z"
           style="fill:none;stroke:#000000;stroke-width:0.45508549;stroke-miterlimit:4;stroke-opacity:1"
           transform="matrix(0.81432727,0,0,0.73677229,18.255582,-2211.0423)" />
      </g>
      <g
         transform="matrix(0,1,-1,0,684.69979,876.11155)"
         id="g3969">
        <path
           inkscape:connector-curvature="0"
           id="path3971"
           d="m -480.12776,3364.8408 c 0,5.18 -3.7993,9.3793 -8.48598,9.3793 -4.68668,0 -8.48598,-4.1993 -8.48598,-9.3793 0,-5.18 3.7993,-9.3792 8.48598,-9.3792 4.68668,0 8.48598,4.1992 8.48598,9.3792 z"
           style="fill:none;stroke:#000000;stroke-width:0.45508549;stroke-miterlimit:4;stroke-opacity:1"
           transform="matrix(0.81432727,0,0,0.73677229,53.986022,-2211.0423)" />
        <path
           inkscape:connector-curvature="0"
           id="path3973"
           d="m -480.12776,3364.8408 c 0,5.18 -3.7993,9.3793 -8.48598,9.3793 -4.68668,0 -8.48598,-4.1993 -8.48598,-9.3793 0,-5.18 3.7993,-9.3792 8.48598,-9.3792 4.68668,0 8.48598,4.1992 8.48598,9.3792 z"
           style="fill:none;stroke:#000000;stroke-width:0.45508549;stroke-miterlimit:4;stroke-opacity:1"
           transform="matrix(0.81432727,0,0,0.73677229,18.255582,-2211.0423)" />
      </g>
      <g
         id="g3975"
         transform="matrix(0,1,-1,0,685.38533,543.72387)">
        <path
           inkscape:connector-curvature="0"
           id="path3977"
           d="m -480.12776,3364.8408 c 0,5.18 -3.7993,9.3793 -8.48598,9.3793 -4.68668,0 -8.48598,-4.1993 -8.48598,-9.3793 0,-5.18 3.7993,-9.3792 8.48598,-9.3792 4.68668,0 8.48598,4.1992 8.48598,9.3792 z"
           style="fill:none;stroke:#000000;stroke-width:0.45508549;stroke-miterlimit:4;stroke-opacity:1"
           transform="matrix(0.81432727,0,0,0.73677229,53.986022,-2211.0423)" />
        <path
           inkscape:connector-curvature="0"
           id="path3979"
           d="m -480.12776,3364.8408 c 0,5.18 -3.7993,9.3793 -8.48598,9.3793 -4.68668,0 -8.48598,-4.1993 -8.48598,-9.3793 0,-5.18 3.7993,-9.3792 8.48598,-9.3792 4.68668,0 8.48598,4.1992 8.48598,9.3792 z"
           style="fill:none;stroke:#000000;stroke-width:0.45508549;stroke-miterlimit:4;stroke-opacity:1"
           transform="matrix(0.81432727,0,0,0.73677229,18.255582,-2211.0423)" />
      </g>
      <path
         style="fill:#000000"
         d="m 158.59911,-206.35488 c 0.7515,-3.5884 2.428,-6.7502 4.996,-9.4223 l 0.9901,-1.0302 0.3678,-0.938 c 1.214,-3.0962 3.0589,-6.3814 5.104,-9.0889 0.3911,-0.5178 0.7291,-1.0832 0.952,-1.5921 1.3488,-3.0803 3.9864,-6.1791 6.859,-8.0581 2.2618,-1.4796 4.8771,-2.5304 7.312,-2.9379 0.5423,-0.091 1.2055,-0.2981 2.2044,-0.6891 1.7103,-0.6696 3.3249,-1.1905 4.9503,-1.5972 1.1228,-0.2809 1.2282,-0.3243 1.6595,-0.6832 2.1939,-1.8258 5.3135,-3.2514 8.1445,-3.7218 0.7006,-0.1165 1.261,-0.1331 3.5107,-0.1046 2.6761,0.034 2.6774,0.034 3.6568,0.2866 2.6276,0.6777 4.7438,1.6874 6.771,3.2306 0.9493,0.7226 2.3065,2.0651 3.04,3.007 0.5866,0.7533 0.6919,0.8478 1.2706,1.1391 0.6236,0.3139 0.6417,0.3176 1.5675,0.3176 2.3019,0 4.954,0.5605 7.2316,1.5283 3.0738,1.3061 5.9408,3.6455 7.8314,6.3897 l 0.4006,0.5816 0.2652,-0.4975 c 0.3159,-0.5928 1.0553,-1.3059 1.6248,-1.5671 0.3591,-0.1647 0.4288,-0.2405 0.6131,-0.6654 0.7646,-1.763 1.942,-2.9277 3.1611,-3.1271 0.2566,-0.042 0.366,-0.1353 0.7249,-0.6179 1.2176,-1.6375 2.0858,-2.2519 3.396,-2.4033 0.4461,-0.052 0.5126,-0.09 1.0749,-0.613 0.3754,-0.3495 0.8262,-0.6701 1.2065,-0.8581 0.5576,-0.2755 0.6784,-0.3032 1.4823,-0.339 l 0.8752,-0.039 0.7232,-0.5194 c 0.9819,-0.705 1.5595,-0.8818 2.6945,-0.8248 l 0.8284,0.042 0.6532,-0.3129 c 0.7793,-0.3733 1.2047,-0.4796 1.9304,-0.4823 0.5809,-0.01 1.4041,0.2133 1.8389,0.4813 0.2571,0.1583 0.2614,0.1583 0.6941,-0.01 1.3247,-0.504 2.9091,-0.149 3.9411,0.8831 0.7568,0.7568 1.2028,1.9968 1.0722,2.9814 -0.054,0.4072 -0.053,0.4096 0.3534,0.8097 0.791,0.7786 1.1915,1.9651 1.2909,3.8244 0.049,0.9212 0.058,0.9554 0.3563,1.3934 0.4758,0.6986 0.647,1.3117 0.647,2.3161 0,0.8344 0.01,0.8601 0.2795,1.267 0.6859,1.0193 0.8227,2.1143 0.4627,3.706 l -0.1805,0.7981 0.209,0.4419 c 0.1935,0.4088 0.2091,0.5276 0.2091,1.5896 0,1.2004 -0.095,1.6628 -0.5099,2.4891 -0.1566,0.3117 -0.1572,0.3374 -0.02,0.9733 0.228,1.0555 0.035,2.0627 -0.6097,3.1906 -0.2199,0.3844 -0.2326,0.4487 -0.1548,0.7841 0.1183,0.5099 0.036,1.5035 -0.1693,2.0485 -0.2058,0.5454 -0.6564,1.2096 -1.3511,1.991 l -0.508,0.5715 -0.048,0.6396 c -0.038,0.5027 -0.1111,0.7738 -0.3442,1.2656 -0.2586,0.5456 -0.4398,0.7676 -1.4141,1.7323 -0.6146,0.6086 -1.5033,1.3853 -1.9748,1.7261 -0.9749,0.7045 -2.5468,1.6249 -3.4623,2.0272 -0.341,0.1499 -0.6185,0.2934 -0.6166,0.319 0,0.026 0.5439,0.3111 1.2043,0.6344 1.9401,0.9498 3.3741,1.9653 4.9071,3.475 1.2449,1.226 1.6196,1.8861 1.7025,2.9994 l 0.046,0.6124 0.5081,0.5715 c 0.6946,0.7813 1.1452,1.4455 1.351,1.991 0.2055,0.5449 0.2877,1.5384 0.1693,2.0484 -0.078,0.3354 -0.065,0.3998 0.1548,0.7841 0.6429,1.1237 0.8261,2.0698 0.6109,3.1545 -0.1341,0.6755 -0.1334,0.7069 0.02,1.0133 0.4131,0.8223 0.5079,1.2862 0.5079,2.4852 0,1.062 -0.016,1.1808 -0.209,1.5896 l -0.2091,0.4419 0.1805,0.7982 c 0.36,1.5916 0.2232,2.6867 -0.4627,3.706 -0.2738,0.4067 -0.2795,0.4325 -0.2795,1.2668 0,1.0045 -0.1712,1.6175 -0.647,2.3162 -0.2983,0.438 -0.307,0.4722 -0.3563,1.3934 -0.099,1.8593 -0.4888,3.0146 -1.284,3.8098 -0.4138,0.4138 -0.4146,0.4155 -0.3604,0.8238 0.1771,1.3351 -0.6345,2.9012 -1.8698,3.6079 -0.8874,0.5077 -2.2022,0.6145 -3.1467,0.2557 -0.4292,-0.1631 -0.4338,-0.1632 -0.6907,-0.01 -0.4228,0.2605 -1.2591,0.4832 -1.8145,0.4832 -0.7286,0 -1.2276,-0.1245 -1.9467,-0.4857 l -0.623,-0.313 -0.8454,0.043 c -1.1597,0.059 -1.7267,-0.1144 -2.732,-0.8363 l -0.7394,-0.5309 -0.6367,0 c -1.173,-0.01 -1.9519,-0.3328 -2.9277,-1.244 -0.41,-0.3829 -0.6539,-0.5512 -0.7989,-0.5512 -0.3703,0 -1.0628,-0.1767 -1.5063,-0.3844 -0.5673,-0.2656 -1.2637,-0.9196 -1.978,-1.8575 -0.5062,-0.6648 -0.616,-0.7657 -0.8803,-0.8089 -1.2187,-0.1993 -2.3962,-1.3643 -3.1607,-3.1271 -0.1842,-0.4249 -0.2541,-0.5007 -0.6131,-0.6654 -0.8934,-0.4098 -1.6884,-1.412 -2.0823,-2.6247 l -0.1449,-0.4462 -0.1305,0.1984 c -0.7368,1.1198 -2.6527,3.1263 -3.8529,4.035 -3.0598,2.3166 -6.6557,3.6287 -10.3472,3.7754 -1.2411,0.049 -1.2963,0.059 -1.8279,0.3245 -0.4325,0.2159 -0.6208,0.3729 -0.892,0.7436 -3.9099,5.3443 -10.1675,8.0556 -16.6443,7.2115 -1.9168,-0.2497 -3.4766,-0.7085 -5.3478,-1.5729 -1.0033,-0.4636 -2.358,-1.2942 -3.1992,-1.9615 -0.306,-0.2428 -0.6044,-0.4701 -0.663,-0.5052 -0.059,-0.035 -0.7566,-0.2231 -1.5512,-0.4178 -0.7946,-0.1947 -1.9836,-0.522 -2.6422,-0.7273 -1.094,-0.3409 -1.2702,-0.3732 -2.0411,-0.3744 -3.5973,-0.01 -7.9886,-1.5831 -11.0902,-3.9845 -2.9269,-2.266 -5.3611,-5.6748 -6.4533,-9.0366 -0.1336,-0.411 -0.3745,-0.8352 -0.858,-1.5104 -1.7347,-2.4226 -3.4302,-5.4857 -4.4428,-8.0266 -0.1528,-0.3833 -0.3135,-0.5868 -0.8382,-1.0614 -2.7436,-2.4811 -4.8799,-6.2732 -5.6487,-10.0265 -0.2035,-0.994 -0.2107,-1.1277 -0.2055,-3.8373 0,-2.6046 0.019,-2.8723 0.1934,-3.7055 z m 0,6.0857 c 0.539,4.2685 2.4996,8.0885 5.802,11.3047 0.7214,0.7027 0.7699,0.7724 1.105,1.5921 0.9806,2.3982 2.7887,5.5926 4.382,7.7414 0.359,0.4842 0.5445,0.8489 0.8126,1.5984 0.7264,2.0301 2.0772,4.3711 3.4307,5.9456 1.7628,2.0507 3.9956,3.7737 6.2713,4.8395 2.5003,1.171 4.8316,1.7474 7.5806,1.8744 0.9348,0.043 1.1758,0.088 2.2146,0.4104 1.1578,0.3594 2.6808,0.76 3.5676,0.9383 0.3817,0.077 0.5963,0.1975 1.2247,0.6887 2.2598,1.7669 5.1209,3.0152 7.8878,3.4415 3.5524,0.5474 7.0517,0.051 10.2237,-1.4502 1.6073,-0.7607 3.3393,-1.9384 4.5207,-3.0739 0.5823,-0.5597 1.8826,-2.0594 2.2593,-2.6059 0.21,-0.3045 0.4098,-0.4677 0.8499,-0.6941 0.5677,-0.292 0.5946,-0.2971 2.0042,-0.3804 3.7366,-0.2209 6.8283,-1.3292 9.9984,-3.5844 1.199,-0.8529 3.3247,-3.041 4.0134,-4.131 0.1294,-0.2049 0.2909,-0.3726 0.3589,-0.3727 0.082,0 0.2036,0.2356 0.3636,0.707 0.4075,1.1999 0.9789,1.9264 1.9046,2.4209 0.4909,0.2624 0.5168,0.293 0.8805,1.0401 0.7754,1.5933 1.5546,2.3725 2.713,2.7133 0.5977,0.1759 0.6185,0.1911 1.0398,0.7608 1.1476,1.5518 2.0599,2.2085 3.1937,2.2991 l 0.5584,0.044 0.6459,0.5939 c 0.3552,0.3267 0.8225,0.6901 1.0385,0.8076 0.5292,0.288 1.3792,0.4598 1.9897,0.4023 l 0.4899,-0.046 0.6254,0.4834 c 1.0543,0.8149 1.9024,1.0745 2.9842,0.9137 l 0.5888,-0.088 0.7844,0.3894 c 0.7351,0.3649 0.8324,0.3915 1.546,0.4227 0.8225,0.036 1.33,-0.078 1.9623,-0.4396 l 0.3266,-0.187 0.6123,0.207 c 1.2608,0.4262 2.569,0.1315 3.5549,-0.8009 0.2996,-0.2834 0.5508,-0.6285 0.7486,-1.0287 0.2771,-0.5606 0.3001,-0.6653 0.3338,-1.5165 l 0.036,-0.9143 0.429,-0.4528 c 0.7872,-0.8306 1.0883,-1.7399 1.1615,-3.507 l 0.045,-1.1022 0.3132,-0.4394 c 0.5286,-0.7414 0.671,-1.2184 0.6849,-2.2958 l 0.012,-0.9389 0.331,-0.5079 c 0.6422,-0.9856 0.7322,-1.8929 0.3494,-3.5207 l -0.1795,-0.7629 0.2692,-0.5841 c 0.4881,-1.0589 0.4227,-2.1078 -0.2259,-3.6216 l -0.2868,-0.6694 0.1304,-0.5197 c 0.262,-1.0448 0.1383,-1.8004 -0.4898,-2.9898 -0.3297,-0.6246 -0.3542,-0.7103 -0.2793,-0.9798 0.1291,-0.4647 0.097,-1.3369 -0.068,-1.8682 -0.186,-0.5977 -0.5628,-1.1739 -1.3686,-2.093 -0.3603,-0.4111 -0.6009,-0.7538 -0.5755,-0.8199 0.024,-0.062 0.01,-0.3646 -0.034,-0.6715 -0.1229,-0.8869 -0.4692,-1.4892 -1.4174,-2.4656 -1.6314,-1.6801 -3.6511,-3.0823 -5.8391,-4.0539 -0.4245,-0.1885 -0.7854,-0.3836 -0.8021,-0.4337 -0.017,-0.05 0.2388,-0.2095 0.5677,-0.3546 2.1942,-0.9682 4.1273,-2.2561 5.7266,-3.8151 1.3429,-1.3093 1.7465,-2.0204 1.7889,-3.1523 0.018,-0.4809 0.028,-0.5005 0.6111,-1.1728 0.7858,-0.9065 1.159,-1.4824 1.3421,-2.0706 0.1654,-0.5313 0.1972,-1.4035 0.068,-1.8682 -0.075,-0.2695 -0.051,-0.3552 0.2794,-0.9797 0.627,-1.1877 0.7517,-1.9454 0.4911,-2.9846 l -0.129,-0.5144 0.3232,-0.7972 c 0.4308,-1.0618 0.5337,-1.5443 0.49,-2.2978 -0.028,-0.4854 -0.097,-0.7595 -0.3044,-1.2092 l -0.268,-0.5815 0.1794,-0.7628 c 0.3829,-1.6279 0.2929,-2.5353 -0.3493,-3.5207 l -0.331,-0.508 -0.012,-0.9389 c -0.014,-1.0773 -0.1562,-1.5544 -0.6849,-2.2958 l -0.3132,-0.4393 -0.045,-1.1022 c -0.073,-1.7672 -0.3743,-2.6764 -1.1615,-3.5072 l -0.429,-0.4526 -0.036,-0.9144 c -0.034,-0.8512 -0.057,-0.9559 -0.3338,-1.5165 -0.8067,-1.6322 -2.6069,-2.4005 -4.2963,-1.8336 l -0.605,0.2031 -0.5402,-0.2745 c -1.0644,-0.5407 -2.105,-0.5112 -3.3357,0.095 l -0.7588,0.3736 -0.5884,-0.095 c -1.0473,-0.169 -1.9196,0.1027 -3.0417,0.9472 l -0.6159,0.4636 -0.4657,-0.05 c -0.5874,-0.064 -1.4346,0.1107 -1.9795,0.4073 -0.2237,0.1217 -0.6909,0.4852 -1.0384,0.8077 l -0.6319,0.5864 -0.5584,0.044 c -1.135,0.09 -2.0458,0.7467 -3.1978,2.3046 -0.4197,0.5675 -0.452,0.5918 -0.9743,0.7332 -1.1605,0.3141 -1.9178,1.0453 -2.7085,2.6149 -0.4453,0.8838 -0.4581,0.8994 -0.9558,1.1612 -0.6368,0.3349 -1.3684,1.1061 -1.616,1.7034 -0.1995,0.4814 -0.3936,0.5751 -0.5396,0.2605 -0.1963,-0.4231 -1.4238,-1.9607 -2.2238,-2.7855 -1.5533,-1.6016 -3.1824,-2.7917 -5.1061,-3.73 -2.5266,-1.2324 -5.1862,-1.8693 -7.8184,-1.8724 l -1.1233,0 -0.6776,-0.3663 c -0.5911,-0.3196 -0.7445,-0.4524 -1.2022,-1.0409 -0.6381,-0.8205 -2.1167,-2.3173 -2.8949,-2.9306 -4.9159,-3.874 -11.2475,-4.8779 -17.1019,-2.7117 -1.5447,0.5716 -3.445,1.663 -4.8456,2.7829 -0.5418,0.4332 -0.5925,0.4543 -1.9299,0.8004 -1.7734,0.459 -3.1506,0.9058 -4.8061,1.5594 -0.9446,0.373 -1.5895,0.5724 -2.2166,0.6853 -4.8354,0.8707 -9.2121,3.6049 -12.0763,7.5443 -0.8639,1.1881 -1.5362,2.3343 -1.9779,3.3721 -0.2022,0.4752 -0.522,1.0247 -0.8357,1.4363 -2.0221,2.6526 -3.9507,6.0433 -5.1485,9.0518 l -0.4746,1.1921 -0.8716,0.8865 c -1.4765,1.5017 -2.6235,3.1212 -3.5356,4.9923 -0.8787,1.8025 -1.5611,4.0744 -1.7706,5.8942 -0.1169,1.0158 -0.1021,3.5561 0.027,4.5752 z m 4.0539,-3.874 c 0.372,-3.5292 2.1586,-6.9969 4.8089,-9.3334 1.1689,-1.0306 1.8242,-1.3009 2.5534,-1.0533 0.5433,0.1845 0.8829,0.4153 1.2612,0.8573 0.4586,0.5359 1.2782,1.8477 1.4094,2.2557 0.058,0.1796 0.2252,0.6205 0.3723,0.9797 0.2834,0.6927 0.5707,1.8396 0.8516,3.4002 0.2165,1.2029 0.2954,1.9798 0.414,4.0814 0.082,1.4556 0.077,1.8663 -0.04,3.0208 -0.3345,3.303 -0.6483,4.818 -1.3913,6.7176 -0.4738,1.2112 -0.6163,1.4449 -1.3043,2.1376 -0.6922,0.6971 -0.8378,0.768 -1.5754,0.768 -0.618,0 -0.9634,-0.1611 -1.8356,-0.8559 -2.7519,-2.1921 -4.6552,-5.2591 -5.3211,-8.5742 -0.2528,-1.2592 -0.3385,-3.1159 -0.203,-4.4015 z m 0.4253,4.524 c 0.7472,3.315 2.5227,6.1316 5.2378,8.309 1.3201,1.0587 2.0381,1.1098 3.0084,0.214 0.6906,-0.6376 0.9343,-1.034 1.4248,-2.3179 0.7197,-1.8838 1.0447,-3.3464 1.2518,-5.6335 0.043,-0.4715 0.1043,-1.1513 0.137,-1.5105 0.077,-0.844 -0.1,-4.6116 -0.2587,-5.511 -0.3751,-2.1261 -0.4539,-2.5372 -0.5795,-3.021 -0.076,-0.2918 -0.2673,-0.8613 -0.4258,-1.2655 -0.1585,-0.4041 -0.3353,-0.8673 -0.3931,-1.0294 -0.1646,-0.4617 -0.9828,-1.7351 -1.4278,-2.222 -0.452,-0.4946 -1.0842,-0.8204 -1.558,-0.8029 -0.6416,0.024 -1.3706,0.5119 -2.556,1.7123 -1.9242,1.9485 -3.3527,4.6244 -3.8873,7.2816 -0.2323,1.1549 -0.2304,1.1272 -0.207,3.0617 0.019,1.5881 0.047,1.9051 0.2334,2.7351 z m 10.7857,-23.5547 c 1.2178,-6.2164 5.9947,-10.9085 12.22,-12.0031 1.0246,-0.1801 3.1605,-0.2455 4.1211,-0.126 2.0105,0.2499 2.9632,0.6499 3.811,1.5996 0.4593,0.5147 0.7331,1.0055 0.9192,1.6481 0.1317,0.4548 0.1383,0.6377 0.063,1.7554 -0.075,1.1098 -0.1185,1.3467 -0.3945,2.1456 -0.3621,1.048 -1.2888,2.7328 -1.9712,3.5841 -0.2557,0.3189 -0.5889,0.7364 -0.7404,0.9277 -0.4667,0.5892 -3.13,3.0106 -3.9432,3.5849 -0.7301,0.5158 -2.4012,1.4967 -2.5497,1.4967 -0.038,0 -0.3145,0.1436 -0.6142,0.3191 -0.9155,0.5363 -1.864,0.8767 -3.4434,1.236 l -1.5105,0.3436 -1.2286,-0.049 c -1.5918,-0.064 -2.3103,-0.2572 -3.0625,-0.8248 -0.9847,-0.7429 -1.2808,-1.0841 -1.5601,-1.7985 -0.2344,-0.5994 -0.2583,-0.7487 -0.282,-1.7572 -0.021,-0.9004 0.01,-1.2817 0.166,-2.082 z m 0.2546,3.652 c 0.2526,0.6743 0.6335,1.12 1.5486,1.812 0.6469,0.4892 1.1029,0.6432 2.3302,0.7866 1.1102,0.1298 1.8121,0.072 3.3442,-0.2759 1.3812,-0.3135 2.4624,-0.7009 3.2798,-1.175 0.2547,-0.1478 0.6221,-0.3379 0.8165,-0.4226 1.1843,-0.5162 2.7808,-1.63 4.1029,-2.8627 0.5803,-0.541 1.0821,-0.9837 1.1149,-0.9837 0.07,0 1.1433,-1.2049 1.7787,-1.9964 0.6988,-0.8702 1.6048,-2.5187 1.9787,-3.6002 0.4191,-1.2122 0.5612,-2.6048 0.3629,-3.5557 -0.201,-0.9645 -0.8651,-1.9296 -1.7183,-2.4976 -0.2864,-0.1906 -1.2928,-0.5503 -1.8779,-0.671 -2.4039,-0.4961 -5.5108,-0.1804 -8.0156,0.8147 -1.3464,0.5348 -2.9801,1.4858 -3.9046,2.2728 -1.4417,1.2275 -2.828,2.8889 -3.619,4.3372 -1.5454,2.8293 -2.1911,6.2311 -1.522,8.0175 z m -0.3953,34.354 c 0.1342,-0.8027 0.6594,-1.9099 1.0753,-2.267 0.3735,-0.3209 1.2623,-0.8756 1.6443,-1.0264 0.4141,-0.1636 2.1675,-0.3766 3.1197,-0.3791 0.8174,-0.01 3.1992,0.4915 4.1875,0.8678 2.1642,0.824 2.6656,1.0837 4.866,2.521 2.4078,1.5726 3.8985,2.9626 5.9154,5.5152 0.844,1.0684 1.685,2.7828 1.9194,3.9128 0.32,1.5431 0.2552,2.5366 -0.2407,3.6936 -0.2201,0.5134 -1.011,1.2744 -1.6965,1.6324 -0.6156,0.3214 -2.1356,0.7945 -3.2114,0.9996 -1.0888,0.2074 -3.3469,0.2516 -4.5721,0.089 -6.3548,-0.8418 -11.4437,-5.5792 -12.7232,-11.8443 -0.2842,-1.3918 -0.4058,-2.9845 -0.2837,-3.7149 z m 0.1936,1.7553 c 0.4739,5.4609 3.7103,10.1455 8.5269,12.3424 2.29,1.0445 3.7884,1.365 6.3683,1.3624 1.7166,-0.01 2.3139,-0.086 4.0006,-0.566 1.2136,-0.3452 1.8566,-0.6646 2.4877,-1.2357 1.054,-0.9537 1.3834,-2.4014 0.9899,-4.3509 -0.1431,-0.7092 -0.275,-1.0616 -0.7638,-2.0411 -0.6262,-1.2547 -1.0341,-1.8511 -2.1216,-3.1019 -1.2793,-1.4714 -2.6195,-2.7187 -3.845,-3.5784 -1.0413,-0.7305 -3.3603,-2.1661 -3.8808,-2.4024 -1.8581,-0.8437 -4.2406,-1.5225 -5.8071,-1.6547 -0.8246,-0.07 -2.7829,0.1459 -3.3472,0.3683 -0.5939,0.2341 -1.6126,0.953 -1.8867,1.3312 -0.3699,0.5107 -0.7723,1.6918 -0.7981,2.343 0,0.1123 0.03,0.645 0.077,1.1838 z m 3.6391,-20.2072 c 0.016,-0.1122 0.069,-0.5348 0.1181,-0.9389 0.2566,-2.1253 1.1351,-4.2898 2.4855,-6.1235 0.8594,-1.1668 2.5662,-2.6097 3.8475,-3.2524 0.8352,-0.4189 2.4035,-0.9467 3.2129,-1.0812 2.1572,-0.3585 4.9712,0.074 6.6134,1.0165 0.2918,0.1675 0.5973,0.3301 0.6787,0.3611 0.081,0.031 0.5293,0.316 0.9952,0.6331 2.5323,1.7238 4.5186,5.078 5.0559,8.5378 0.252,1.6227 0.1197,4.1853 -0.2679,5.1878 -0.046,0.1195 -0.1573,0.5259 -0.2469,0.903 -0.5729,2.4121 -2.7925,5.3352 -5.072,6.6796 -0.845,0.4983 -1.8613,0.9963 -2.4021,1.177 -1.3681,0.4571 -3.8191,0.5871 -5.4113,0.2871 -1.4833,-0.2795 -3.2546,-1.0806 -4.5621,-2.0632 -2.007,-1.5082 -3.4485,-3.5013 -4.2925,-5.9352 -0.6065,-1.7492 -0.9366,-4.1135 -0.7524,-5.3886 z m 0.2285,2.2075 c 0.3406,2.7275 1.2475,4.9553 2.8237,6.9369 2.0626,2.5929 5.3442,4.237 8.4698,4.2435 0.9371,0.01 2.2217,-0.1533 3.0561,-0.3695 0.6104,-0.1581 1.6995,-0.6274 2.1311,-0.9181 0.1891,-0.1275 0.5642,-0.3541 0.8336,-0.5037 0.7007,-0.3888 1.828,-1.3812 2.3821,-2.097 0.2616,-0.3378 0.5946,-0.7673 0.7401,-0.9542 0.9986,-1.2834 1.5424,-2.6357 2.1066,-5.2388 0.6629,-3.0581 -0.2916,-7.1435 -2.3174,-9.9199 -0.6356,-0.8709 -1.8285,-2.0705 -2.5383,-2.5523 -1.6057,-1.0899 -3.1225,-1.7637 -4.4505,-1.9769 -1.2246,-0.1967 -2.7591,-0.2381 -3.5973,-0.097 -3.9962,0.6716 -7.2558,3.4134 -8.8123,7.4121 -0.535,1.3745 -0.8088,2.7167 -0.8894,4.3584 -0.013,0.2694 -0.031,0.5464 -0.039,0.6154 -0.01,0.069 0.037,0.5468 0.1015,1.0614 z m 17.8804,-36.542 c 0.3525,-0.588 1.7836,-1.697 3.1437,-2.4362 2.3226,-1.2623 4.8587,-1.8096 7.446,-1.607 1.2761,0.1 2.0664,0.2573 3.1727,0.6314 2.9095,0.9838 5.2313,2.7533 6.9655,5.3085 0.7308,1.0768 0.8024,1.5644 0.3028,2.0638 -1.1318,1.132 -2.41,1.4502 -6.1422,1.5294 -2.5427,0.054 -3.59,-0.024 -5.7798,-0.4289 -2.4028,-0.4446 -3.0849,-0.6053 -4.0415,-0.9519 -0.4939,-0.179 -1.1211,-0.3913 -1.3938,-0.4718 -0.6704,-0.1979 -1.7435,-0.701 -1.9942,-0.9351 -0.1124,-0.1049 -0.328,-0.2532 -0.4791,-0.3295 -0.681,-0.3439 -1.3974,-1.2868 -1.3974,-1.8394 0,-0.1122 0.089,-0.3522 0.1973,-0.5333 z m 0.2562,1.193 c 0.1793,0.3591 0.3718,0.5335 1.3003,1.1783 0.6233,0.433 1.5697,0.8994 2.2044,1.0865 0.3143,0.093 0.9205,0.2969 1.3471,0.4539 0.8978,0.3304 1.7781,0.5613 2.8168,0.7388 0.4042,0.069 1.2299,0.2175 1.8349,0.3298 3.0759,0.5711 7.7454,0.4641 9.6771,-0.2217 0.572,-0.2031 0.9428,-0.4272 1.3676,-0.8266 0.3176,-0.2987 0.3345,-0.3396 0.3067,-0.7435 -0.064,-0.9316 -2.1828,-3.4279 -3.9852,-4.6958 -3.6064,-2.5369 -8.2972,-3.0894 -12.4091,-1.4615 -1.7262,0.6834 -3.8429,2.1077 -4.5188,3.0408 -0.2596,0.3584 -0.2523,0.4995 0.058,1.121 z m 0.1418,67.6367 c 0.1542,-0.2245 0.3514,-0.4718 0.4382,-0.5494 0.2033,-0.1818 1.3974,-0.9038 2.0171,-1.2195 0.6502,-0.3313 3.4399,-1.2485 4.2969,-1.4128 0.3811,-0.073 0.9318,-0.1852 1.2236,-0.2493 0.9695,-0.2127 2.3895,-0.438 4.0823,-0.6478 3.5118,-0.435 6.9059,-0.2107 8.6136,0.5693 0.5331,0.2435 0.747,0.4559 0.8687,0.862 0.093,0.3109 0.082,0.3672 -0.1682,0.8775 -0.3704,0.7545 -0.9759,1.6313 -1.7531,2.5387 -2.4484,2.8586 -6.2169,4.5791 -10.0299,4.5791 -0.727,0 -2.4541,-0.2067 -3.1238,-0.3739 -1.2201,-0.3045 -2.9917,-1.0592 -4.0006,-1.7042 -0.7028,-0.4494 -1.7261,-1.2668 -2.2311,-1.7822 -0.5834,-0.5955 -0.6324,-0.9071 -0.2337,-1.4875 z m -0.02,0.8315 c 0.118,0.3124 0.3944,0.5951 1.2609,1.2897 1.3054,1.0466 2.307,1.6245 3.7645,2.1723 1.1278,0.4238 1.9109,0.6108 3.2564,0.7777 0.99,0.1228 1.2876,0.1287 2.2221,0.044 1.8444,-0.1661 3.147,-0.5073 4.732,-1.2396 2.28,-1.0534 4.5387,-3.1572 5.8027,-5.4049 0.3128,-0.5561 0.3602,-0.6994 0.323,-0.9762 -0.053,-0.3984 -0.2244,-0.5963 -0.6948,-0.8044 -1.8787,-0.8311 -4.9526,-1.0357 -8.6093,-0.5731 -2.4185,0.306 -4.4325,0.6677 -5.9393,1.0666 -1.1957,0.3167 -3.2267,1.0261 -3.7148,1.2976 -1.4004,0.7792 -1.8672,1.1223 -2.2308,1.6401 -0.2935,0.4179 -0.2893,0.4008 -0.1726,0.7097 z m 2.8482,-52.1865 c 0.6408,-3.3997 2.9458,-6.2401 6.1296,-7.553 2.6677,-1.1001 6.2648,-1.1418 9.2598,-0.1075 4.9044,1.6937 8.6453,5.6894 9.7323,10.395 0.2808,1.2154 0.3446,2.9174 0.1546,4.1229 -0.3314,2.1019 -1.2636,4.0066 -2.6886,5.4937 -1.0696,1.1161 -2.1191,1.8032 -3.7081,2.4271 -1.574,0.6182 -2.609,0.8088 -4.3425,0.8 -1.3796,-0.01 -3.2817,-0.2697 -4.368,-0.603 -4.0858,-1.2537 -7.8929,-4.6709 -9.4522,-8.4844 -0.352,-0.8609 -0.5269,-1.4532 -0.7228,-2.4493 -0.1976,-1.0043 -0.1947,-2.9769 0.01,-4.0415 z m 0.168,3.9237 c 0.4976,2.7131 1.9144,5.2344 4.0838,7.2673 2.496,2.339 4.9624,3.5647 8.1217,4.0358 2.8741,0.4287 5.0218,0.1143 7.4772,-1.0945 2.8034,-1.3801 4.7783,-4.1895 5.266,-7.4915 0.4073,-2.7574 -0.446,-5.9111 -2.316,-8.5594 -0.8188,-1.1595 -2.6223,-2.9344 -3.7323,-3.6729 -1.5521,-1.0328 -3.65,-1.9575 -5.2661,-2.3213 -0.9426,-0.2123 -1.8603,-0.3015 -3.0865,-0.3003 -4.3288,0.01 -7.8432,2.0586 -9.6509,5.6413 -0.9414,1.8658 -1.2869,4.3682 -0.8969,6.4955 z m 0.2032,29.5509 c 0.062,-0.3143 0.1148,-0.7001 0.1172,-0.8573 0,-0.1571 0.1001,-0.7082 0.2173,-1.2246 0.1749,-0.771 0.3233,-1.1578 0.8294,-2.163 0.9149,-1.8166 1.3666,-2.4681 2.5405,-3.6644 1.7889,-1.8229 2.3124,-2.2091 4.4339,-3.2714 1.7343,-0.8685 1.9275,-0.9451 3.0617,-1.2158 0.9493,-0.2265 1.5132,-0.3082 2.613,-0.3786 1.9143,-0.1225 3.2373,0.016 4.7392,0.4975 1.1314,0.3625 1.6965,0.6397 2.7699,1.359 1.7004,1.1395 2.6876,2.3698 3.4996,4.3615 0.4111,1.0084 0.5312,1.6608 0.5851,3.1781 0.042,1.1903 0.026,1.474 -0.1336,2.3174 -0.3486,1.8436 -1.2595,3.8924 -2.4321,5.4705 -0.711,0.9568 -2.2264,2.467 -3.205,3.194 -1.8659,1.3862 -4.1652,2.3888 -6.5316,2.8483 -1.0897,0.2116 -3.2804,0.2538 -4.3681,0.084 -2.75,-0.4289 -4.9143,-1.5564 -6.5094,-3.3913 -0.2928,-0.3369 -0.6788,-0.8528 -0.8579,-1.1466 -1.0674,-1.7512 -1.6788,-4.4292 -1.3691,-5.9975 z m 0.1263,1.629 c 0.1791,1.563 0.8144,3.3705 1.6,4.5523 0.839,1.2621 2.3879,2.5512 3.9101,3.2545 0.7471,0.3452 2.0449,0.7395 2.9776,0.9046 0.9033,0.16 3.362,0.1339 4.2864,-0.045 3.041,-0.59 5.6276,-1.867 7.8143,-3.858 3.8834,-3.5359 5.5,-8.6522 4.0075,-12.6829 -0.7218,-1.9492 -1.7957,-3.3531 -3.374,-4.4105 -1.4869,-0.9962 -2.3558,-1.3795 -3.8716,-1.7079 -1.3121,-0.2843 -2.1571,-0.3314 -3.7777,-0.2107 -2.2383,0.1667 -3.1772,0.4354 -5.4295,1.5535 -2.0445,1.0151 -2.5037,1.3471 -4.2329,3.0608 -1.2772,1.2656 -1.7106,1.8757 -2.6681,3.756 -0.5746,1.1282 -0.6677,1.3761 -0.8581,2.286 -0.1176,0.5613 -0.2665,1.4064 -0.3311,1.8779 -0.065,0.4715 -0.1218,0.8756 -0.1271,0.8981 0,0.022 0.028,0.3697 0.074,0.7717 z m 21.0951,11.4223 c 0.1534,-0.3077 0.3703,-0.7675 0.482,-1.0216 0.1834,-0.4175 0.5467,-1.0025 1.9692,-3.1711 0.2504,-0.3817 0.7406,-1.0247 1.0894,-1.4288 0.3488,-0.4042 0.8067,-0.992 1.0176,-1.3063 0.8322,-1.2406 2.8054,-3.4394 5.0495,-5.6268 2.8164,-2.7452 4.0911,-3.6843 4.9193,-3.6239 0.3144,0.023 0.3469,0.048 0.4428,0.3419 0.3568,1.0928 0.5302,3.7197 0.3488,5.2831 -0.1694,1.4595 -0.7542,3.3902 -1.4321,4.7279 -0.437,0.8624 -1.5578,2.413 -2.3157,3.2037 -2.6507,2.7654 -5.9657,4.2282 -9.8903,4.3642 -1.1198,0.039 -1.3988,0.025 -1.6532,-0.082 -0.3051,-0.1286 -0.3063,-0.1309 -0.3063,-0.6148 0,-0.3891 0.056,-0.5968 0.279,-1.0451 z m 0.02,1.4512 c 0.1035,0.086 0.444,0.1098 1.4492,0.1021 2.9299,-0.023 5.5987,-0.8924 8.0328,-2.619 0.6332,-0.4491 2.1011,-1.8206 2.5759,-2.4069 1.4219,-1.7553 2.4741,-3.9876 2.9178,-6.1904 0.206,-1.0225 0.2851,-2.9092 0.1677,-4.0006 -0.1079,-1.0032 -0.3272,-2.1175 -0.4471,-2.2719 -0.1948,-0.2507 -1.2309,0.1648 -1.9497,0.7817 -0.2486,0.2134 -0.7568,0.6452 -1.1293,0.9595 -0.8716,0.7355 -3.4998,3.3694 -4.8163,4.8265 -1.1601,1.2841 -1.8033,2.0757 -2.2354,2.7512 -0.1635,0.2556 -0.5476,0.7494 -0.8536,1.0973 -0.644,0.7323 -1.2798,1.6078 -1.6575,2.2827 -0.1456,0.26 -0.4463,0.7287 -0.6682,1.0415 -0.2219,0.3129 -0.5295,0.8456 -0.6835,1.1839 -0.1541,0.3382 -0.3208,0.6885 -0.3704,0.7783 -0.4872,0.8805 -0.6017,1.4611 -0.3324,1.6841 z m 0.01,-60.9732 c 0.019,-0.098 0.083,-0.2181 0.1428,-0.2675 0.3144,-0.261 2.5059,-0.1597 4.2146,0.1947 4.4472,0.9224 8.4018,4.2426 10.0382,8.4279 0.7245,1.8532 0.9991,3.318 0.9938,5.3027 -0.01,2.0063 -0.2735,3.5055 -0.6819,3.8103 l -0.2148,0.1604 -0.6374,-0.2573 c -0.3648,-0.1473 -0.8976,-0.457 -1.2459,-0.7241 -0.3347,-0.2567 -0.7772,-0.5924 -0.9834,-0.7458 -0.6458,-0.4804 -1.4634,-1.2748 -2.9347,-2.851 -1.8169,-1.9463 -2.449,-2.6841 -4.1034,-4.7896 -1.5405,-1.9604 -2.1192,-2.767 -2.6073,-3.6338 -0.1895,-0.3365 -0.5453,-0.9152 -0.7908,-1.2861 -0.4861,-0.7345 -1.2538,-2.5576 -1.2355,-2.934 0.01,-0.126 0.027,-0.309 0.046,-0.4068 z m 0.3388,1.103 c 0.1278,0.2995 0.2952,0.7163 0.3719,0.9263 0.077,0.21 0.3376,0.6876 0.5798,1.0614 0.2422,0.3737 0.5572,0.9 0.7002,1.1694 0.3643,0.6866 1.2448,1.9616 2.0915,3.0287 0.3953,0.4982 1.109,1.3984 1.5859,2.0003 1.0266,1.2959 1.3471,1.6602 3.2772,3.7257 1.4458,1.5471 2.165,2.2365 2.9188,2.7981 0.211,0.1572 0.5819,0.4477 0.8242,0.6456 0.459,0.3749 1.4978,0.9056 1.7724,0.9056 0.2445,0 0.3117,-0.1376 0.5179,-1.0613 0.169,-0.7569 0.1914,-1.0677 0.1914,-2.6535 0,-1.5706 -0.024,-1.9075 -0.1895,-2.6819 -1.0685,-4.9911 -4.4096,-8.7826 -9.205,-10.4457 -1.4825,-0.5141 -3.6689,-0.8255 -5.0159,-0.7143 l -0.5307,0.044 -0.051,0.2858 c -0.028,0.1572 -0.055,0.3164 -0.061,0.3537 -0.01,0.038 0.094,0.3129 0.2216,0.6124 z m 4.1755,28.263 c 0.138,-2.7925 1.0758,-5.6609 2.5568,-7.8206 0.533,-0.7771 1.0884,-1.2723 1.9825,-1.7677 0.6689,-0.3706 0.781,-0.406 1.3843,-0.438 1.5056,-0.08 2.4027,0.3732 3.798,1.9176 1.532,1.6955 2.7209,3.9886 3.2252,6.2204 0.8311,3.6783 0.1264,7.5438 -1.9595,10.7469 -0.5502,0.8449 -1.148,1.5671 -1.9177,2.3166 -1.1667,1.136 -1.9561,1.5359 -3.1902,1.616 -0.8305,0.054 -1.2777,-0.091 -2.121,-0.6892 -1.0139,-0.7187 -1.4593,-1.2509 -2.0993,-2.5087 -0.908,-1.7842 -1.0511,-2.1821 -1.292,-3.5924 -0.061,-0.3592 -0.1701,-0.9103 -0.2417,-1.2246 -0.1604,-0.7051 -0.2181,-2.9 -0.1254,-4.7763 z m 0.2378,4.3272 c 0.037,0.2021 0.1283,0.6797 0.2032,1.0614 0.075,0.3817 0.1774,0.9145 0.2278,1.1839 0.1372,0.7338 0.3427,1.2618 1.0221,2.6256 0.7093,1.4238 1.0514,1.878 1.9033,2.5263 0.9393,0.7147 1.3745,0.8919 2.1628,0.8801 1.1047,-0.016 1.9896,-0.4381 3.0494,-1.4532 1.7924,-1.7166 3.0445,-3.7774 3.7502,-6.172 0.3238,-1.0987 0.4131,-1.6164 0.5092,-2.9522 0.1295,-1.8003 -0.066,-3.2814 -0.6766,-5.1296 -0.8431,-2.5514 -2.6651,-5.1709 -4.3466,-6.2491 -0.783,-0.502 -2.2339,-0.6762 -2.8694,-0.3444 -1.4541,0.7592 -1.9,1.1413 -2.6199,2.2451 -0.9033,1.3851 -1.6452,3.2501 -2.1032,5.2873 -0.1641,0.7298 -0.2373,1.3443 -0.287,2.4086 -0.071,1.5247 -0.036,3.4788 0.075,4.0822 z m 13.1214,-23.6363 c 0.085,-0.8104 0.2496,-0.9205 0.4787,-0.3204 0.1396,0.3656 0.6727,1.0144 0.8335,1.0144 0.1831,0 0.2962,-0.5127 0.3601,-1.6329 0.14,-2.4559 0.8834,-5.0165 1.0869,-3.7438 0.097,0.6083 0.5605,1.3096 0.7767,1.176 0.033,-0.02 0.1079,-0.2504 0.1658,-0.5106 0.1519,-0.6834 0.7846,-2.6207 1.1003,-3.3691 0.2726,-0.6463 0.5748,-1.1456 0.6935,-1.1456 0.035,0 0.088,0.2826 0.1172,0.628 0.049,0.5766 0.3039,1.3315 0.4501,1.3315 0.031,0 0.2533,-0.4229 0.4939,-0.9398 0.7459,-1.6031 2.2191,-3.8774 2.5535,-3.9423 0.1069,-0.02 0.1202,0.086 0.092,0.7348 -0.027,0.6135 0,0.8205 0.1164,1.0794 l 0.1494,0.3203 0.3802,-0.6102 c 0.8683,-1.393 2.477,-3.3371 2.7615,-3.3371 0.1382,0 0.1467,0.056 0.1027,0.6796 -0.046,0.6509 0.058,1.2799 0.2123,1.2799 0.034,0 0.3856,-0.3687 0.781,-0.8193 1.0833,-1.2346 2.7343,-2.721 2.8709,-2.5844 0.027,0.027 -0.014,0.3596 -0.089,0.7401 -0.1102,0.5555 -0.1202,0.7845 -0.051,1.1604 0.048,0.2576 0.098,0.4793 0.1109,0.4927 0.1078,0.1078 0.4468,-0.1676 0.874,-0.7099 0.926,-1.1756 2.6129,-2.6342 2.814,-2.4331 0.026,0.026 0.01,0.4982 -0.041,1.0504 -0.058,0.6708 -0.06,1.0314 0,1.086 0.1892,0.1893 2.4667,-0.8292 3.3373,-1.4924 0.2367,-0.1803 0.4755,-0.3278 0.5307,-0.3278 0.077,10e-5 0.1004,0.5446 0.1004,2.3474 0,1.5 0.031,2.3996 0.086,2.4923 0.076,0.1281 0.1554,0.073 0.682,-0.4695 0.3277,-0.338 0.6251,-0.6145 0.6607,-0.6145 0.1013,0 0.2449,0.9689 0.2449,1.6519 0,0.7581 -0.2511,2.2472 -0.527,3.1243 -0.2525,0.803 -0.2597,0.988 -0.041,1.0452 0.3961,0.1035 0.899,-0.1973 1.2329,-0.7376 0.091,-0.1467 0.2199,-0.2668 0.2872,-0.2668 0.2598,0 -0.095,1.9354 -0.6593,3.5928 -0.3586,1.0538 -0.3698,1.2243 -0.081,1.2243 0.3752,0 0.7814,-0.2625 1.1597,-0.7496 0.4222,-0.5436 0.609,-0.6168 0.5358,-0.2097 -0.2358,1.3109 -0.8089,2.8855 -1.421,3.9038 -0.2228,0.3707 -0.405,0.6856 -0.405,0.6997 0,0.014 0.1146,0.085 0.2548,0.1574 0.3586,0.1855 0.7162,0.095 1.1568,-0.2928 0.4216,-0.3711 0.6703,-0.4306 0.5887,-0.1409 -0.028,0.1011 -0.2286,0.5511 -0.4449,1.0001 -0.4324,0.8981 -0.9833,1.7186 -1.6263,2.4221 -0.2305,0.2521 -0.419,0.4951 -0.419,0.5397 0,0.1472 0.605,0.3812 0.9916,0.3835 0.2491,0 0.4334,-0.046 0.5371,-0.1407 0.202,-0.1828 0.3491,-0.1825 0.3491,0 0,0.3974 -1.5292,2.2099 -2.4493,2.9033 -0.2354,0.1773 -0.2703,0.2401 -0.1978,0.3559 0.2586,0.4135 0.8102,0.562 1.5245,0.4105 0.2667,-0.057 0.3062,-0.045 0.3062,0.086 0,0.3365 -1.4522,1.7967 -3.1258,3.1432 l -0.4724,0.38 0.2031,0.133 c 0.2436,0.1597 0.8969,0.3644 1.1628,0.3644 0.1093,0 0.1912,0.049 0.1912,0.1142 0,0.1651 -1.4964,1.5604 -2.2664,2.1131 -1.7626,1.2654 -4.0615,2.3075 -6.1878,2.8048 -0.9653,0.2257 -2.4158,0.2078 -3.2212,-0.04 -0.914,-0.2811 -1.5956,-0.6953 -2.2923,-1.3928 -0.6437,-0.6444 -1.4634,-1.8656 -1.4634,-2.1801 0,-0.1009 0.2207,-0.4424 0.5034,-0.7791 3.2858,-3.9124 6.8117,-10.1392 9.3776,-16.5609 0.5743,-1.4373 1.151,-3.0383 1.1094,-3.0799 -0.021,-0.022 -0.1754,0.2307 -0.3416,0.5609 -1.7888,3.5525 -5.7161,9.6045 -8.3826,12.9177 -1.7227,2.1403 -4.3149,4.869 -4.6256,4.869 -0.2137,0 -1.212,-0.3537 -1.7228,-0.6104 -1.3465,-0.6766 -2.4261,-1.7919 -3.1631,-3.2678 -0.5929,-1.1876 -1.3509,-3.829 -1.6109,-5.6136 -0.1299,-0.8921 -0.2189,-2.8544 -0.1564,-3.4491 z m 0.3294,3.3066 c 0.2574,1.8886 0.9833,4.3888 1.6759,5.7725 0.8174,1.6329 2.2191,2.8698 3.9194,3.4585 l 0.6671,0.231 0.2953,-0.2339 c 0.4818,-0.3815 2.4328,-2.4256 3.2775,-3.4338 3.373,-4.0256 7.2139,-9.8669 9.6477,-14.6723 0.5894,-1.1638 0.8756,-1.5647 0.8756,-1.2265 0,0.2122 -0.9472,2.8699 -1.6366,4.5922 -2.5757,6.4339 -5.7753,12.1251 -9.1767,16.3222 l -0.7055,0.8706 0.2495,0.4669 c 0.8286,1.5503 2.0813,2.5954 3.6017,3.0051 0.7722,0.208 2.0391,0.1886 3.0138,-0.046 2.808,-0.6761 5.6349,-2.1911 7.5522,-4.0471 l 0.5715,-0.5532 -0.3798,-0.099 c -0.4905,-0.1277 -1.0832,-0.4555 -1.1047,-0.6109 -0.01,-0.068 0.3291,-0.3919 0.7663,-0.7337 0.8799,-0.688 2.1775,-1.8907 2.5573,-2.3703 l 0.2513,-0.3173 -0.4118,0.049 c -0.5169,0.061 -1.0784,-0.1369 -1.3101,-0.4622 -0.2332,-0.3275 -0.2072,-0.4144 0.2203,-0.7363 0.2087,-0.1571 0.6591,-0.567 1.0008,-0.9108 0.6932,-0.6974 1.4456,-1.6991 1.1625,-1.5476 -0.2779,0.1487 -0.8502,0.106 -1.2447,-0.093 -0.5152,-0.2598 -0.5183,-0.4487 -0.017,-1.0272 0.811,-0.9358 1.5191,-2.0089 1.8533,-2.8088 l 0.1272,-0.3045 -0.3838,0.2434 c -0.4716,0.2991 -0.9581,0.3273 -1.2798,0.074 -0.2583,-0.2032 -0.2692,-0.3623 -0.047,-0.688 0.5203,-0.7623 1.32,-2.6909 1.5066,-3.6332 l 0.057,-0.2858 -0.3555,0.3375 c -0.459,0.4357 -0.6329,0.5198 -1.076,0.5198 -0.5358,0 -0.5467,-0.1682 -0.097,-1.4938 0.3772,-1.1117 0.6903,-2.3662 0.6934,-2.778 l 0,-0.2304 -0.2664,0.2826 c -0.3188,0.3381 -0.8633,0.5286 -1.1871,0.4154 -0.3044,-0.1064 -0.3256,-0.5035 -0.07,-1.3154 0.3592,-1.142 0.4931,-1.9631 0.4969,-3.045 0,-0.5613 -0.021,-1.0831 -0.052,-1.1596 -0.045,-0.113 -0.1585,-0.032 -0.604,0.4286 -0.5957,0.6172 -0.807,0.6994 -0.8824,0.3432 -0.1166,-0.551 -0.2112,-2.6852 -0.1609,-3.6332 0.03,-0.5725 0.037,-1.041 0.014,-1.041 -0.023,0 -0.2944,0.1709 -0.6034,0.3798 -0.9456,0.6391 -2.9774,1.4939 -3.2774,1.3788 -0.1077,-0.041 -0.1183,-0.1828 -0.073,-0.9783 0.029,-0.5116 0.078,-0.994 0.1077,-1.0722 0.046,-0.1206 2e-4,-0.1123 -0.3037,0.054 -0.4504,0.2471 -1.7067,1.4845 -2.2719,2.2377 -0.4128,0.5501 -0.5788,0.6683 -0.9634,0.6858 -0.1526,0.01 -0.1918,-0.059 -0.2753,-0.4608 -0.093,-0.4477 -0.067,-1.2915 0.049,-1.5935 0.03,-0.078 0.017,-0.1419 -0.029,-0.1419 -0.1248,0 -2.1016,1.9297 -2.708,2.6435 -0.2908,0.3423 -0.5897,0.6223 -0.6643,0.6223 -0.2384,0 -0.3991,-0.4966 -0.3991,-1.2332 l 0,-0.6778 -0.3318,0.3228 c -0.4766,0.4635 -1.2476,1.453 -1.9553,2.5095 -0.7435,1.1098 -0.8896,1.1799 -1.1102,0.5325 -0.081,-0.2383 -0.1491,-0.6649 -0.151,-0.948 l 0,-0.5148 -0.1876,0.229 c -0.609,0.7432 -1.4432,2.1523 -2.1134,3.5694 -0.1892,0.4003 -0.4034,0.786 -0.4758,0.8573 -0.1206,0.1185 -0.1485,0.1103 -0.328,-0.096 -0.2229,-0.2566 -0.445,-0.928 -0.4501,-1.3606 l 0,-0.2914 -0.1572,0.2857 c -0.3026,0.5505 -0.8077,1.9302 -1.1742,3.2071 -0.2034,0.7086 -0.3917,1.324 -0.4186,1.3675 -0.1847,0.2987 -0.7537,-0.2243 -0.9776,-0.8983 -0.077,-0.2316 -0.1534,-0.4074 -0.17,-0.3908 -0.017,0.017 -0.122,0.3772 -0.2341,0.8013 -0.2406,0.91 -0.4539,2.4569 -0.4539,3.2918 0,0.7906 -0.1895,1.3575 -0.4539,1.3575 -0.2778,0 -0.7658,-0.463 -0.9837,-0.9333 l -0.1871,-0.4038 -0.033,0.5664 c -0.05,0.8487 0.016,2.1661 0.1593,3.2201 z m -0.329,36.7405 c 0.2074,-2.2672 1.0006,-5.3643 1.767,-6.8991 0.5551,-1.1118 1.348,-2.0721 2.2311,-2.7023 0.5928,-0.423 1.6897,-0.9487 2.2918,-1.0982 l 0.4211,-0.1046 0.6723,0.6054 c 0.7906,0.7119 2.1528,2.1778 3.274,3.5233 2.8438,3.4127 6.7228,9.3032 9.0077,13.6788 0.1707,0.3269 0.3244,0.5802 0.3417,0.563 0.067,-0.067 -0.8805,-2.5657 -1.7568,-4.6341 -2.481,-5.8561 -5.7066,-11.3965 -8.7344,-15.0027 -0.2909,-0.3464 -0.5032,-0.6771 -0.5032,-0.7836 0,-0.3211 0.8665,-1.6041 1.4982,-2.2182 0.6821,-0.6631 1.3769,-1.079 2.2574,-1.351 0.9256,-0.2861 2.3341,-0.2684 3.5516,0.044 2.8444,0.7307 5.4516,2.1518 7.4093,4.0384 0.738,0.7113 0.8524,0.9101 0.5233,0.9101 -0.2653,0 -0.9191,0.2047 -1.1617,0.3637 l -0.2019,0.1323 0.7161,0.5836 c 1.614,1.3154 2.8798,2.6081 2.8798,2.941 0,0.1313 -0.04,0.1424 -0.3062,0.086 -0.7144,-0.1515 -1.2659,-0.01 -1.5246,0.4105 -0.072,0.1158 -0.038,0.1786 0.1979,0.3559 0.9201,0.6934 2.4493,2.506 2.4493,2.9033 0,0.1784 -0.1459,0.1846 -0.3342,0.014 -0.2472,-0.2237 -0.7516,-0.2395 -1.1706,-0.037 -0.2052,0.099 -0.373,0.2181 -0.373,0.2639 0,0.046 0.1885,0.2897 0.419,0.5418 0.6429,0.7036 1.1939,1.524 1.6263,2.4221 0.5035,1.0455 0.5436,1.1838 0.3431,1.1838 -0.084,0 -0.2575,-0.1085 -0.3845,-0.2412 -0.3288,-0.3431 -0.7384,-0.5194 -1.0647,-0.4582 -0.4839,0.091 -0.4889,0.1993 -0.044,0.9397 0.6116,1.0178 1.1848,2.5926 1.4206,3.9032 0.073,0.4071 -0.1137,0.334 -0.5359,-0.2097 -0.3782,-0.487 -0.7844,-0.7496 -1.1597,-0.7496 -0.2891,0 -0.2779,0.1705 0.081,1.2243 0.5568,1.6363 0.928,3.6409 0.6629,3.5797 -0.066,-0.015 -0.2448,-0.1931 -0.3968,-0.3952 -0.3244,-0.4313 -0.7751,-0.6839 -1.0824,-0.6068 -0.2681,0.067 -0.2686,0.2124 0,1.0559 0.2758,0.8771 0.527,2.3662 0.527,3.1243 0,0.683 -0.1437,1.6519 -0.2449,1.6519 -0.035,0 -0.333,-0.2765 -0.6607,-0.6145 -0.5266,-0.5431 -0.606,-0.5977 -0.682,-0.4695 -0.055,0.093 -0.086,0.9923 -0.086,2.4924 0,1.8146 -0.023,2.3472 -0.1014,2.3473 -0.056,0 -0.2699,-0.1287 -0.476,-0.286 -0.5806,-0.4431 -1.3932,-0.8899 -2.1986,-1.2085 -0.9115,-0.3607 -1.1508,-0.4214 -1.2201,-0.3091 -0.03,0.048 -0.013,0.5325 0.037,1.0766 0.05,0.544 0.069,1.0112 0.042,1.0383 -0.2024,0.2024 -1.8525,-1.2169 -2.7899,-2.3997 -0.4478,-0.565 -0.7937,-0.8478 -0.9031,-0.7384 -0.014,0.014 -0.063,0.2316 -0.1095,0.4851 -0.087,0.4735 0.01,1.3031 0.182,1.6339 0.146,0.2729 -0.05,0.3433 -0.3552,0.1274 -0.5684,-0.4025 -1.728,-1.5026 -2.4904,-2.3627 -0.4361,-0.4918 -0.8196,-0.8942 -0.8524,-0.8942 -0.1515,0 -0.2553,0.6334 -0.2097,1.28 0.044,0.6225 0.035,0.6795 -0.1022,0.6795 -0.2826,0 -1.7877,-1.814 -2.7093,-3.2658 l -0.4328,-0.6817 -0.1494,0.3204 c -0.1206,0.2586 -0.1431,0.4661 -0.1167,1.0757 0.026,0.5865 0.01,0.7552 -0.075,0.7552 -0.1351,0 -0.9671,-1.0878 -1.5127,-1.9777 -0.228,-0.3717 -0.6587,-1.1809 -0.9574,-1.7981 -0.2987,-0.6173 -0.5673,-1.1225 -0.597,-1.1226 -0.1438,0 -0.3992,0.759 -0.4476,1.3312 -0.029,0.3454 -0.082,0.6279 -0.1172,0.6279 -0.291,0 -1.0777,-1.9113 -1.6635,-4.0414 -0.1836,-0.6676 -0.3097,-0.9878 -0.3957,-1.0049 -0.1587,-0.032 -0.5445,0.61 -0.6744,1.1216 -0.052,0.2052 -0.1425,0.3732 -0.2007,0.3732 -0.2891,0 -0.7878,-2.2671 -0.8889,-4.0415 -0.064,-1.1202 -0.1769,-1.6329 -0.36,-1.6329 -0.1608,0 -0.6939,0.6488 -0.8336,1.0145 -0.1459,0.3821 -0.3075,0.4787 -0.3996,0.2389 -0.065,-0.1682 -0.124,-2.2273 -0.079,-2.723 z m 0.1949,2.3269 0,0.3266 0.1903,-0.4089 c 0.2213,-0.4751 0.7085,-0.9383 0.9871,-0.9383 0.2643,0 0.4539,0.5669 0.4539,1.3575 0,0.8349 0.2133,2.3818 0.4538,3.2918 0.1122,0.4241 0.2175,0.7847 0.2341,0.8013 0.017,0.017 0.093,-0.1592 0.1701,-0.3908 0.2239,-0.674 0.7929,-1.197 0.9775,-0.8983 0.027,0.043 0.2153,0.6589 0.4187,1.3676 0.3664,1.2769 0.8715,2.6565 1.1742,3.207 l 0.1571,0.2858 0.01,-0.2915 c 0,-0.4326 0.2271,-1.104 0.4501,-1.3605 0.1742,-0.2006 0.2098,-0.2122 0.3178,-0.1034 0.067,0.067 0.4156,0.7103 0.7749,1.4288 0.5954,1.1903 1.3394,2.4163 1.8238,3.0048 l 0.1884,0.229 0.01,-0.5555 c 0,-0.3321 0.066,-0.7132 0.1555,-0.9474 0.2274,-0.5922 0.3748,-0.5157 1.1039,0.5727 0.7078,1.0566 1.4787,2.0461 1.9553,2.5096 l 0.3318,0.3227 0,-0.6778 c 0,-0.7366 0.1607,-1.2332 0.3991,-1.2332 0.075,0 0.3735,0.2801 0.6643,0.6223 0.6065,0.7138 2.5832,2.6435 2.708,2.6435 0.046,0 0.059,-0.064 0.029,-0.1418 -0.1159,-0.302 -0.1417,-1.1459 -0.049,-1.5935 0.09,-0.4325 0.1144,-0.4686 0.3161,-0.4634 0.3632,0.01 0.4532,0.084 1.1471,0.949 0.7252,0.9037 1.5459,1.6905 2.0723,1.9864 0.2863,0.1608 0.3256,0.1672 0.2788,0.045 -0.03,-0.078 -0.078,-0.5607 -0.1077,-1.0722 -0.045,-0.7955 -0.035,-0.937 0.073,-0.9783 0.3027,-0.1162 2.4186,0.7751 3.2953,1.3879 0.2916,0.2039 0.552,0.3707 0.5786,0.3707 0.027,0 0.024,-0.4685 -0.01,-1.041 -0.05,-0.948 0.044,-3.0823 0.1609,-3.6332 0.075,-0.3562 0.2866,-0.274 0.8825,0.3432 0.4454,0.4613 0.5585,0.5416 0.6039,0.4286 0.031,-0.077 0.054,-0.5983 0.052,-1.1596 -0.01,-1.0819 -0.1377,-1.903 -0.4969,-3.045 -0.2553,-0.8119 -0.2341,-1.209 0.07,-1.3155 0.3239,-0.1131 0.8683,0.077 1.1872,0.4155 l 0.2664,0.2825 0,-0.2303 c -0.01,-0.4118 -0.3163,-1.6663 -0.6935,-2.778 -0.4496,-1.3256 -0.4387,-1.4938 0.097,-1.4938 0.4432,0 0.6171,0.084 1.0761,0.5198 l 0.3554,0.3375 -0.057,-0.2858 c -0.1865,-0.9423 -0.9863,-2.8709 -1.5065,-3.6332 -0.2224,-0.3257 -0.2115,-0.4848 0.047,-0.6881 0.3217,-0.253 0.8082,-0.2248 1.2797,0.074 l 0.3839,0.2434 -0.1272,-0.3045 c -0.3343,-0.7999 -1.0423,-1.8731 -1.8534,-2.8089 -0.5012,-0.5784 -0.4981,-0.7673 0.017,-1.0271 0.3946,-0.199 0.9669,-0.2417 1.2448,-0.093 0.2855,0.1528 -0.4796,-0.8675 -1.1655,-1.5541 -0.3398,-0.3402 -0.7887,-0.7472 -0.9977,-0.9044 -0.4276,-0.3218 -0.4537,-0.4086 -0.2205,-0.7362 0.2317,-0.3253 0.7932,-0.5235 1.3101,-0.4622 l 0.4119,0.049 -0.2406,-0.3038 c -0.3604,-0.4551 -1.4935,-1.5183 -2.4862,-2.3328 -0.4847,-0.3978 -0.868,-0.7649 -0.8517,-0.8157 0.045,-0.1406 0.7956,-0.527 1.1361,-0.5848 0.2222,-0.038 0.2889,-0.083 0.2545,-0.1729 -0.085,-0.2208 -1.6019,-1.4981 -2.4612,-2.0722 -1.0211,-0.682 -2.4599,-1.4229 -3.5647,-1.8355 -3.1163,-1.1638 -5.1585,-1.0717 -6.9722,0.3146 -0.5363,0.4099 -1.1944,1.2122 -1.5969,1.9472 l -0.2994,0.5465 0.7071,0.8726 c 2.8054,3.4617 5.4055,7.8164 7.7704,13.0139 1.4271,3.1367 3.1595,7.7579 2.9767,7.9408 -0.051,0.051 -0.1076,0.077 -0.1257,0.057 -0.018,-0.019 -0.2597,-0.4894 -0.537,-1.0443 -1.1892,-2.3796 -2.8788,-5.2578 -4.7757,-8.1355 -2.7678,-4.1986 -5.2354,-7.3094 -7.623,-9.6102 l -0.9073,-0.8743 -0.4319,0.1279 c -1.887,0.5588 -3.3837,1.8547 -4.2909,3.7151 -1.0378,2.1283 -1.8797,5.9891 -1.7688,8.1112 0.019,0.3593 0.034,0.8001 0.035,0.9798 z"
         id="path3990"
         inkscape:connector-curvature="0"
         sodipodi:nodetypes="cscsssssssscsssssssscscscssssscsscscsssssssssscsssssssscssssccssscsssssssscssssssssscsscsscssscscssscssssssssssscssssssccccsscssscscssssssssscsssssscscccsccssscsssscsscsscsscsscssssscssscsssssssscssscsscsscsscssscssccscssscsssssssssccsssssssssssscsssccssssccsssssssssssssssssssscssssssssssssssssscsssssssssscsssssssssssssccsssssssssssscsssssssssscsccssssssscssssssccscccssssssssssscssssssssscscsssscssssssssssscscssssssssssssssssssssssssscsssssscsssccsssssssssssscssssssssssssssssssssssssssssssssscsscssssssssssssscsssssscssssscsscccsssscccsssssscccssssssssssssscssccsssssssssssssssssssssssssssssscsssscssssssssccssssscsscscssccsssssssssssssssssssssssssscssccssssssssscsssssscccsscsssssscsssscssssccssscssscsssscsssccccsscssssscsccscscsssscssssccscsscsscsssssscsccsssscssssssssssssccssccssccssssscssssscscsssssscsscscscsssssssscssssscssscsssssssccsssssscsscccssscsssscssssssssccsscsssscssssccssscsssscssscsssccsscsssssscssccsssccsscc" />
      <g
         id="flowRoot3992"
         style="font-size:36px;font-style:normal;font-variant:normal;font-weight:bold;font-stretch:normal;line-height:125%;letter-spacing:0px;word-spacing:0px;fill:#000000;fill-opacity:1;stroke:none;font-family:Arial;-inkscape-font-specification:Arial Bold"
         transform="matrix(0,1,-1,0,3296.7342,-1133.1874)">
        <path
           inkscape:connector-curvature="0"
           id="path4005"
           d="m 904.82422,3210.4556 0,-25.7695 10.95117,0 c 2.75389,0 4.75487,0.2315 6.00293,0.6943 1.24803,0.463 2.24705,1.2862 2.99707,2.4698 0.74998,1.1836 1.12498,2.5371 1.125,4.0605 -2e-5,1.9336 -0.56838,3.5303 -1.70508,4.7901 -1.13674,1.2597 -2.83595,2.0537 -5.09765,2.3818 1.12498,0.6563 2.05369,1.377 2.78613,2.1621 0.7324,0.7852 1.7197,2.1797 2.96191,4.1836 l 3.14649,5.0273 -6.22266,0 -3.76172,-5.6074 c -1.33595,-2.0039 -2.25001,-3.2666 -2.74219,-3.7881 -0.4922,-0.5214 -1.01368,-0.8789 -1.56445,-1.0722 -0.55079,-0.1934 -1.42384,-0.2901 -2.61914,-0.2901 l -1.05469,0 0,10.7578 z m 5.20312,-14.871 3.84961,0 c 2.49608,0 4.05467,-0.1055 4.67578,-0.3165 0.62108,-0.2109 1.10741,-0.5742 1.45899,-1.0898 0.35154,-0.5156 0.52732,-1.1601 0.52734,-1.9336 -2e-5,-0.8672 -0.23146,-1.5674 -0.69433,-2.1006 -0.46291,-0.5332 -1.11623,-0.8701 -1.95996,-1.0107 -0.42189,-0.059 -1.68752,-0.088 -3.79688,-0.088 l -4.06055,0 z" />
        <path
           inkscape:connector-curvature="0"
           id="path4007"
           d="m 934.47852,3197.483 -4.48243,-0.8086 c 0.50391,-1.8047 1.37109,-3.1406 2.60157,-4.0078 1.23046,-0.8672 3.05858,-1.3008 5.48437,-1.3008 2.20311,0 3.84374,0.2608 4.92188,0.7822 1.07811,0.5215 1.83689,1.1836 2.27636,1.9864 0.43944,0.8027 0.65917,2.2763 0.65918,4.4209 l -0.0527,5.7656 c -2e-5,1.6406 0.0791,2.8506 0.2373,3.6299 0.15819,0.7793 0.45409,1.6142 0.8877,2.5048 l -4.88672,0 c -0.12892,-0.3281 -0.28712,-0.8144 -0.47461,-1.4589 -0.082,-0.293 -0.14064,-0.4864 -0.17578,-0.5801 -0.84376,0.8203 -1.74611,1.4355 -2.70703,1.8457 -0.96095,0.4101 -1.98634,0.6152 -3.07617,0.6152 -1.92188,0 -3.43653,-0.5215 -4.54395,-1.5644 -1.10742,-1.043 -1.66113,-2.3614 -1.66113,-3.9551 0,-1.0547 0.25195,-1.9951 0.75586,-2.8213 0.5039,-0.8262 1.20996,-1.459 2.11816,-1.8984 0.9082,-0.4395 2.21777,-0.8233 3.92871,-1.1514 2.30859,-0.4336 3.90819,-0.8379 4.79883,-1.2129 l 0,-0.4922 c -1e-5,-0.9492 -0.23439,-1.6259 -0.70312,-2.0303 -0.46877,-0.4042 -1.35353,-0.6064 -2.6543,-0.6064 -0.87892,0 -1.56446,0.1729 -2.05664,0.5186 -0.4922,0.3457 -0.89063,0.9521 -1.19531,1.8193 z m 6.60937,4.0078 c -0.63282,0.2109 -1.63478,0.4629 -3.00586,0.7559 -1.3711,0.2929 -2.26758,0.58 -2.68945,0.8613 -0.64454,0.457 -0.9668,1.0371 -0.9668,1.7402 0,0.6914 0.25781,1.2891 0.77344,1.793 0.51562,0.5039 1.17187,0.7559 1.96875,0.7559 0.89061,0 1.74022,-0.293 2.54883,-0.879 0.59764,-0.4453 0.99022,-0.9902 1.17773,-1.6347 0.12889,-0.4219 0.19335,-1.2246 0.19336,-2.4082 z" />
        <path
           inkscape:connector-curvature="0"
           id="path4009"
           d="m 949.08594,3205.1295 4.95703,-0.7559 c 0.21093,0.961 0.63866,1.6904 1.2832,2.1885 0.64453,0.498 1.54687,0.7471 2.70703,0.7471 1.27734,0 2.23827,-0.2344 2.88282,-0.7032 0.43358,-0.3281 0.65037,-0.7675 0.65039,-1.3183 -2e-5,-0.375 -0.1172,-0.6856 -0.35157,-0.9317 -0.2461,-0.2343 -0.79688,-0.4511 -1.65234,-0.6504 -3.98438,-0.8789 -6.50977,-1.6816 -7.57617,-2.4082 -1.47657,-1.0078 -2.21485,-2.4081 -2.21485,-4.2011 0,-1.6172 0.63867,-2.9766 1.91602,-4.0782 1.27734,-1.1015 3.25781,-1.6523 5.94141,-1.6523 2.55467,0 4.45311,0.416 5.69531,1.248 1.24217,0.8321 2.09764,2.0626 2.5664,3.6915 l -4.6582,0.8613 c -0.19923,-0.7266 -0.57716,-1.2832 -1.13379,-1.6699 -0.55665,-0.3867 -1.35059,-0.5801 -2.38183,-0.5801 -1.30079,0 -2.23243,0.1816 -2.79493,0.5449 -0.375,0.2578 -0.5625,0.5918 -0.5625,1.002 0,0.3515 0.16406,0.6504 0.49219,0.8964 0.44531,0.3282 1.98339,0.7911 4.61426,1.3887 2.63085,0.5977 4.46776,1.3301 5.51074,2.1973 1.03123,0.8789 1.54686,2.1035 1.54688,3.6738 -2e-5,1.7109 -0.71486,3.1817 -2.14453,4.4121 -1.42971,1.2305 -3.54494,1.8457 -6.34571,1.8457 -2.54297,0 -4.55567,-0.5156 -6.03808,-1.5469 -1.48243,-1.0312 -2.45215,-2.4316 -2.90918,-4.2011 z" />
        <path
           inkscape:connector-curvature="0"
           id="path4011"
           d="m 970.72461,3191.7877 4.60547,0 0,2.7422 c 0.59765,-0.9375 1.40624,-1.6992 2.42578,-2.2852 1.01952,-0.5859 2.15038,-0.8789 3.39258,-0.8789 2.16795,0 4.00779,0.8496 5.51953,2.5488 1.5117,1.6993 2.26756,4.0664 2.26758,7.1016 -2e-5,3.1172 -0.76174,5.54 -2.28516,7.2685 -1.52345,1.7286 -3.36915,2.5928 -5.53711,2.5928 -1.03126,0 -1.96583,-0.2051 -2.80371,-0.6152 -0.8379,-0.4102 -1.71973,-1.1133 -2.64551,-2.1094 l 0,9.4043 -4.93945,0 z m 4.88672,9.0176 c -10e-6,2.0976 0.41601,3.6474 1.24804,4.6494 0.83203,1.0019 1.8457,1.5029 3.04102,1.5029 1.14843,0 2.1035,-0.46 2.86523,-1.3799 0.76171,-0.9199 1.14257,-2.4287 1.14258,-4.5264 -10e-6,-1.957 -0.39259,-3.4101 -1.17773,-4.3593 -0.78517,-0.9492 -1.75783,-1.4238 -2.91797,-1.4239 -1.20704,1e-4 -2.20899,0.4659 -3.00586,1.3975 -0.79688,0.9317 -1.19532,2.3115 -1.19531,4.1397 z" />
        <path
           inkscape:connector-curvature="0"
           id="path4013"
           d="m 992.66211,3210.4556 0,-25.7695 4.93945,0 0,9.2813 c 1.52343,-1.7344 3.32814,-2.6016 5.41404,-2.6016 2.2734,0 4.1543,0.8233 5.6426,2.4697 1.4883,1.6465 2.2324,4.0108 2.2324,7.0928 0,3.1875 -0.7588,5.6426 -2.2763,7.3652 -1.5176,1.7227 -3.3604,2.584 -5.5284,2.584 -1.0664,0 -2.1181,-0.2666 -3.15524,-0.7998 -1.03711,-0.5332 -1.93067,-1.3213 -2.68066,-2.3642 l 0,2.7421 z m 4.9043,-9.7382 c -10e-6,1.9336 0.30468,3.3633 0.91406,4.289 0.85546,1.3125 1.99213,1.9688 3.41013,1.9688 1.0899,0 2.0186,-0.4658 2.7862,-1.3975 0.7675,-0.9316 1.1513,-2.3994 1.1513,-4.4033 0,-2.1328 -0.3867,-3.6709 -1.1601,-4.6143 -0.7735,-0.9433 -1.7637,-1.415 -2.9707,-1.415 -1.1836,0 -2.16801,0.46 -2.95316,1.3799 -0.78516,0.9199 -1.17774,2.3174 -1.17773,4.1924 z" />
        <path
           inkscape:connector-curvature="0"
           id="path4015"
           d="m 1025.6914,3204.5142 4.9219,0.8262 c -0.6328,1.8047 -1.6319,3.1787 -2.9971,4.1221 -1.3652,0.9433 -3.0732,1.415 -5.124,1.415 -3.2461,0 -5.6485,-1.0605 -7.207,-3.1816 -1.2305,-1.6992 -1.8457,-3.8438 -1.8457,-6.4336 0,-3.0938 0.8085,-5.5166 2.4257,-7.2686 1.6172,-1.7519 3.6621,-2.6279 6.1348,-2.6279 2.7773,0 4.9687,0.917 6.5742,2.751 1.6055,1.834 2.373,4.6435 2.3028,8.4287 l -12.375,0 c 0.035,1.4648 0.4335,2.6045 1.1953,3.4189 0.7617,0.8145 1.7109,1.2217 2.8476,1.2217 0.7734,0 1.4238,-0.2109 1.9512,-0.6328 0.5273,-0.4219 0.9258,-1.1016 1.1953,-2.0391 z m 0.2813,-4.9921 c -0.035,-1.4297 -0.4044,-2.5166 -1.1075,-3.2608 -0.7031,-0.7441 -1.5586,-1.1162 -2.5664,-1.1162 -1.0781,0 -1.9687,0.3926 -2.6718,1.1777 -0.7032,0.7852 -1.0489,1.8516 -1.0372,3.1993 z" />
        <path
           inkscape:connector-curvature="0"
           id="path4017"
           d="m 1039.6484,3210.4556 -4.9394,0 0,-18.6679 4.5879,0 0,2.6543 c 0.7851,-1.2539 1.4912,-2.0801 2.1181,-2.4785 0.627,-0.3985 1.3389,-0.5977 2.1358,-0.5977 1.125,0 2.209,0.3106 3.2519,0.9316 l -1.5293,4.3067 c -0.832,-0.5391 -1.6054,-0.8086 -2.3203,-0.8086 -0.6914,0 -1.2773,0.1904 -1.7578,0.5713 -0.4805,0.3809 -0.8584,1.0693 -1.1338,2.0654 -0.2754,0.9961 -0.4131,3.082 -0.4131,6.2578 z" />
        <path
           inkscape:connector-curvature="0"
           id="path4019"
           d="m 1053.6406,3210.4556 -4.9394,0 0,-18.6679 4.5879,0 0,2.6543 c 0.7851,-1.2539 1.4912,-2.0801 2.1181,-2.4785 0.627,-0.3985 1.3389,-0.5977 2.1358,-0.5977 1.125,0 2.2089,0.3106 3.2519,0.9316 l -1.5293,4.3067 c -0.832,-0.5391 -1.6055,-0.8086 -2.3203,-0.8086 -0.6914,0 -1.2773,0.1904 -1.7578,0.5713 -0.4805,0.3809 -0.8584,1.0693 -1.1338,2.0654 -0.2754,0.9961 -0.4131,3.082 -0.4131,6.2578 z" />
        <path
           inkscape:connector-curvature="0"
           id="path4021"
           d="m 1060.5664,3191.7877 5.2559,0 4.4648,13.2539 4.3594,-13.2539 5.1152,0 -6.5918,17.9648 -1.1777,3.252 c -0.4336,1.0898 -0.8467,1.9218 -1.2393,2.4961 -0.3926,0.5742 -0.8437,1.04 -1.3535,1.3974 -0.5098,0.3574 -1.1367,0.6358 -1.8808,0.835 -0.7442,0.1992 -1.585,0.2988 -2.5225,0.2988 -0.9492,0 -1.8809,-0.1 -2.7949,-0.2988 l -0.4395,-3.8672 c 0.7735,0.1523 1.4707,0.2285 2.0918,0.2285 1.1484,0 1.9981,-0.3369 2.5488,-1.0107 0.5508,-0.6739 0.9727,-1.5323 1.2657,-2.5752 z" />
        <path
           inkscape:connector-curvature="0"
           id="path4023"
           d="m 1092.9629,3210.4556 0,-25.7695 8.3496,0 c 3.164,0 5.2265,0.1289 6.1875,0.3867 1.4765,0.3868 2.7129,1.2276 3.709,2.5225 0.9961,1.2949 1.4941,2.9678 1.4941,5.0185 0,1.5821 -0.2871,2.9122 -0.8613,3.9903 -0.5742,1.0781 -1.3037,1.9248 -2.1885,2.54 -0.8848,0.6153 -1.7842,1.0225 -2.6982,1.2217 -1.2422,0.2461 -3.0411,0.3692 -5.3965,0.3691 l -3.3926,0 0,9.7207 z m 5.2031,-21.4101 0,7.3125 2.8477,0 c 2.0507,0 3.4218,-0.1348 4.1133,-0.4043 0.6913,-0.2695 1.2333,-0.6914 1.6259,-1.2656 0.3926,-0.5742 0.5889,-1.2422 0.5889,-2.0039 0,-0.9375 -0.2754,-1.711 -0.8262,-2.3204 -0.5508,-0.6093 -1.248,-0.9902 -2.0918,-1.1425 -0.6211,-0.1172 -1.8691,-0.1758 -3.7441,-0.1758 z" />
        <path
           inkscape:connector-curvature="0"
           id="path4025"
           d="m 1116.9746,3189.2564 0,-4.5703 4.9395,0 0,4.5703 z m 0,21.1992 0,-18.6679 4.9395,0 0,18.6679 z" />
        <path
           inkscape:connector-curvature="0"
           id="path4027"
           d="m 1136.9961,3184.6861 10.3008,0 c 2.039,0 3.5595,0.085 4.5615,0.2549 1.0019,0.1699 1.8984,0.5244 2.6895,1.0635 0.7909,0.5391 1.4501,1.2568 1.9775,2.1533 0.5273,0.8965 0.791,1.9014 0.791,3.0146 0,1.2071 -0.3252,2.3145 -0.9756,3.3223 -0.6504,1.0078 -1.5322,1.7637 -2.6455,2.2676 1.5703,0.457 2.7773,1.2363 3.6211,2.3379 0.8437,1.1015 1.2656,2.3965 1.2656,3.8847 0,1.1719 -0.2725,2.3116 -0.8174,3.419 -0.5449,1.1074 -1.289,1.9922 -2.2324,2.6543 -0.9434,0.6621 -2.1064,1.0693 -3.4892,1.2217 -0.8672,0.094 -2.959,0.1523 -6.2754,0.1757 l -8.7715,0 z m 5.2031,4.2891 0,5.959 3.4102,0 c 2.0273,0 3.2871,-0.029 3.7793,-0.088 0.8906,-0.1055 1.5908,-0.4131 2.1006,-0.9229 0.5097,-0.5097 0.7646,-1.1806 0.7646,-2.0127 0,-0.7968 -0.2197,-1.4443 -0.6592,-1.9424 -0.4394,-0.498 -1.0928,-0.7997 -1.9599,-0.9052 -0.5157,-0.059 -1.9981,-0.088 -4.4473,-0.088 z m 0,10.248 0,6.8906 4.8164,0 c 1.875,10e-5 3.0645,-0.053 3.5684,-0.1582 0.7734,-0.1406 1.4033,-0.4833 1.8896,-1.0283 0.4863,-0.5449 0.7295,-1.2744 0.7295,-2.1885 0,-0.7734 -0.1875,-1.4296 -0.5625,-1.9687 -0.375,-0.5391 -0.917,-0.9316 -1.626,-1.1777 -0.709,-0.2461 -2.247,-0.3692 -4.6142,-0.3692 z" />
        <path
           inkscape:connector-curvature="0"
           id="path4029"
           d="m 1161.8164,3200.858 c 0,-1.6406 0.4043,-3.2285 1.2129,-4.7637 0.8086,-1.5351 1.9541,-2.707 3.4365,-3.5156 1.4824,-0.8086 3.1377,-1.2129 4.9658,-1.2129 2.8242,0 5.1387,0.917 6.9434,2.751 1.8047,1.834 2.707,4.1514 2.707,6.9521 0,2.8243 -0.9111,5.1651 -2.7334,7.0225 -1.8222,1.8574 -4.1162,2.7861 -6.8818,2.7861 -1.711,0 -3.3428,-0.3867 -4.8955,-1.1601 -1.5527,-0.7735 -2.7334,-1.9073 -3.542,-3.4014 -0.8086,-1.4941 -1.2129,-3.3135 -1.2129,-5.458 z m 5.0625,0.2637 c 0,1.8515 0.4395,3.2695 1.3184,4.2539 0.8789,0.9843 1.9628,1.4765 3.2519,1.4765 1.2891,0 2.3701,-0.4922 3.2432,-1.4765 0.873,-0.9844 1.3095,-2.4141 1.3096,-4.2891 -10e-5,-1.8281 -0.4366,-3.2344 -1.3096,-4.2187 -0.8731,-0.9844 -1.9541,-1.4766 -3.2432,-1.4766 -1.2891,0 -2.373,0.4922 -3.2519,1.4766 -0.8789,0.9843 -1.3184,2.4023 -1.3184,4.2539 z" />
        <path
           inkscape:connector-curvature="0"
           id="path4031"
           d="m 1193.5273,3191.7877 0,3.9375 -3.375,0 0,7.5234 c 0,1.5235 0.032,2.4112 0.097,2.6631 0.064,0.252 0.211,0.46 0.4395,0.624 0.2285,0.1641 0.5068,0.2461 0.8349,0.2461 0.4571,0 1.1192,-0.1582 1.9864,-0.4746 l 0.4218,3.832 c -1.1484,0.4922 -2.4492,0.7383 -3.9023,0.7383 -0.8906,0 -1.6934,-0.1494 -2.4082,-0.4482 -0.7149,-0.2988 -1.2393,-0.6856 -1.5732,-1.1602 -0.334,-0.4746 -0.5655,-1.1162 -0.6944,-1.9248 -0.1055,-0.5742 -0.1582,-1.7344 -0.1582,-3.4805 l 0,-8.1386 -2.2676,0 0,-3.9375 2.2676,0 0,-3.709 4.957,-2.8828 0,6.5918 z" />
      </g>
      <g
         id="g3100">
        <path
           inkscape:connector-curvature="0"
           id="rect3062"
           d="m 366.84216,157.40143 10.62992,0 0,76.36889 -10.62992,0 z"
           style="fill:#ffffff;stroke:#000080;stroke-opacity:1" />
        <path
           inkscape:connector-curvature="0"
           id="rect3071"
           d="m 367.34216,462.51093 10.62992,0 0,76.36889 -10.62992,0 z"
           style="fill:#ffffff;stroke:#000080;stroke-opacity:1" />
      </g>
      <g
         transform="translate(-0.50000309,-431.54359)"
         id="g3104">
        <path
           inkscape:connector-curvature="0"
           id="rect3106"
           d="m 366.84216,157.40143 10.62992,0 0,76.36889 -10.62992,0 z"
           style="fill:#ffffff;stroke:#000080;stroke-opacity:1" />
        <path
           inkscape:connector-curvature="0"
           id="rect3108"
           d="m 367.34216,462.51093 10.62992,0 0,76.36889 -10.62992,0 z"
           style="fill:#ffffff;stroke:#000080;stroke-opacity:1" />
      </g>
      <path
         inkscape:connector-curvature="0"
         id="path3120"
         d="m 166.17289,336.2379 c -12.17988,0 -12.15778,0 -12.15778,0"
         style="fill:none;stroke:#000000;stroke-width:0.99921262;stroke-linecap:butt;stroke-linejoin:miter;stroke-miterlimit:4;stroke-opacity:1;stroke-dasharray:none" />
      <g
         id="g3917"
         transform="translate(-446.25361,-696.52006)"
         style="stroke-width:0.99921262;stroke-miterlimit:4;stroke-dasharray:none">
        <path
           id="path3919"
           d="m 612.4265,924.75798 0,9.6681 123.4103,0 -0.1896,-9.8576 16.8718,0.1895 0,-77.91339 -18.0092,0.3792 -0.1895,-10.4264 -123.2208,0 0,10.2368 -10.92259,0 0,77.91339"
           style="fill:none;stroke:#000000;stroke-width:0.99921262;stroke-miterlimit:4;stroke-dasharray:none"
           inkscape:connector-curvature="0"
           sodipodi:nodetypes="cccccccccccc" />
        <path
           id="path3921"
           d="m 632.5469,854.60779 c -0.1443,0.926 -0.2887,1.852 -0.7171,2.6512 -0.4158,0.7755 -1.0989,1.4317 -1.8845,1.8844 -0.8097,0.4666 -1.7281,0.7172 -2.6513,0.7172 -0.9232,0 -1.8513,-0.2506 -2.6512,-0.7172 -0.7763,-0.4527 -1.4319,-1.1089 -1.8845,-1.8844 -0.4664,-0.7992 -0.7172,-1.7252 -0.7172,-2.6512 0,-0.926 0.2508,-1.852 0.7172,-2.6512 0.4526,-0.7755 1.1082,-1.4317 1.8845,-1.8844 0.7999,-0.4666 1.728,-0.7172 2.6512,-0.7172 0.9232,0 1.8416,0.2506 2.6513,0.7172 0.7856,0.4527 1.4687,1.1089 1.8845,1.8844 0.4284,0.7992 0.5728,1.7252 0.7171,2.6512"
           style="fill:none;stroke:#000000;stroke-width:0.99921262;stroke-miterlimit:4;stroke-dasharray:none"
           inkscape:connector-curvature="0" />
        <path
           id="path3923"
           d="m 632.5469,854.60779 0,0"
           style="fill:none;stroke:#000000;stroke-width:0.99921262;stroke-miterlimit:4;stroke-dasharray:none"
           inkscape:connector-curvature="0" />
        <path
           id="path3925"
           d="m 632.5469,916.61568 0,0"
           style="fill:none;stroke:#000000;stroke-width:0.99921262;stroke-miterlimit:4;stroke-dasharray:none"
           inkscape:connector-curvature="0" />
        <path
           id="path3928"
           d="m 632.5469,916.61568 c -0.1443,0.926 -0.2887,1.852 -0.7171,2.6512 -0.4158,0.7755 -1.0989,1.4317 -1.8845,1.8844 -0.8097,0.4666 -1.7281,0.7172 -2.6513,0.7172 -0.9232,0 -1.8513,-0.2506 -2.6512,-0.7172 -0.7763,-0.4527 -1.4319,-1.1089 -1.8845,-1.8844 -0.4664,-0.7992 -0.7172,-1.7252 -0.7172,-2.6512 0,-0.926 0.2508,-1.852 0.7172,-2.6512 0.4526,-0.7755 1.1082,-1.4317 1.8845,-1.8845 0.7999,-0.4666 1.728,-0.71709 2.6512,-0.71709 0.9232,0 1.8416,0.25049 2.6513,0.71709 0.7856,0.4528 1.4687,1.109 1.8845,1.8845 0.4284,0.7992 0.5728,1.7252 0.7171,2.6512"
           style="fill:none;stroke:#000000;stroke-width:0.99921262;stroke-miterlimit:4;stroke-dasharray:none"
           inkscape:connector-curvature="0" />
        <path
           id="path3930"
           d="m 711.8343,882.96659 c -0.1416,1.3993 -0.2831,2.7986 -0.7245,4.1128 -0.435,1.2953 -1.1614,2.508 -2.0555,3.5663 -0.9071,1.0736 -1.9868,1.9884 -3.1955,2.6884 -1.2088,0.7001 -2.5465,1.1853 -3.9251,1.4262 -1.3588,0.2374 -2.7574,0.2374 -4.1162,0 -1.3786,-0.2409 -2.7163,-0.7261 -3.9251,-1.4262 -1.2087,-0.7 -2.2884,-1.6148 -3.1955,-2.6884 -0.8941,-1.0583 -1.6205,-2.271 -2.0555,-3.5663 -0.4414,-1.3142 -0.5829,-2.7135 -0.7245,-4.1128"
           style="fill:none;stroke:#000000;stroke-width:0.99921262;stroke-miterlimit:4;stroke-dasharray:none"
           inkscape:connector-curvature="0" />
        <path
           id="path3932"
           d="m 687.9169,882.96659 c 0.1416,-1.3993 0.2831,-2.7986 0.7245,-4.1128 0.435,-1.2953 1.1614,-2.508 2.0555,-3.5663 0.9071,-1.0737 1.9868,-1.9885 3.1955,-2.6885 1.2088,-0.7 2.5465,-1.1852 3.9251,-1.4261 1.3588,-0.2374 2.7574,-0.2374 4.1162,0 1.3786,0.2409 2.7163,0.7261 3.9251,1.4261 1.2087,0.7 2.2884,1.6148 3.1955,2.6885 0.8941,1.0583 1.6205,2.271 2.0555,3.5663 0.4414,1.3142 0.5829,2.7135 0.7245,4.1128"
           style="fill:none;stroke:#000000;stroke-width:0.99921262;stroke-miterlimit:4;stroke-dasharray:none"
           inkscape:connector-curvature="0" />
        <path
           id="path3934"
           d="m 711.8343,882.96659 0,0"
           style="fill:none;stroke:#000000;stroke-width:0.99921262;stroke-miterlimit:4;stroke-dasharray:none"
           inkscape:connector-curvature="0" />
      </g>
      <path
         style="fill:none;stroke:#000000;stroke-width:0.99921262;stroke-linecap:butt;stroke-linejoin:miter;stroke-miterlimit:4;stroke-opacity:1;stroke-dasharray:none"
         d="m 166.17289,228.2379 c -12.17988,0 -12.15778,0 -12.15778,0"
         id="path3936"
         inkscape:connector-curvature="0" />
      <path
         id="path3940"
         d="m 540.10759,476.97701 c -3.81648,0 -6.91041,-3.09387 -6.91041,-6.91036 0,-3.81649 3.09393,-6.91037 6.91041,-6.91037 3.81648,0 6.91033,3.09388 6.91033,6.91037 0,3.81649 -3.09385,6.91036 -6.91033,6.91036 z"
         style="fill:none;stroke:#000000;stroke-width:0.35249999;stroke-miterlimit:4;stroke-opacity:1"
         inkscape:connector-curvature="0" />
      <path
         id="path3942"
         d="m 540.10759,231.14736 c -3.81648,0 -6.91041,-3.09387 -6.91041,-6.91036 0,-3.81649 3.09393,-6.91037 6.91041,-6.91037 3.81648,0 6.91033,3.09388 6.91033,6.91037 0,3.81649 -3.09385,6.91036 -6.91033,6.91036 z"
         style="fill:none;stroke:#000000;stroke-width:0.35249999;stroke-miterlimit:4;stroke-opacity:1"
         inkscape:connector-curvature="0" />
      <path
         inkscape:connector-curvature="0"
         style="fill:none;stroke:#000000;stroke-width:0.35249999;stroke-miterlimit:4;stroke-opacity:1"
         d="m 540.10759,44.977038 c -3.81648,0 -6.91041,-3.09387 -6.91041,-6.91036 0,-3.81649 3.09393,-6.91037 6.91041,-6.91037 3.81648,0 6.91033,3.09388 6.91033,6.91037 0,3.81649 -3.09385,6.91036 -6.91033,6.91036 z"
         id="path3966" />
      <path
         inkscape:connector-curvature="0"
         style="fill:none;stroke:#000000;stroke-width:0.35249999;stroke-miterlimit:4;stroke-opacity:1"
         d="m 540.10759,-200.85263 c -3.81648,0 -6.91041,-3.09387 -6.91041,-6.91036 0,-3.81649 3.09393,-6.91037 6.91041,-6.91037 3.81648,0 6.91033,3.09388 6.91033,6.91037 0,3.81649 -3.09385,6.91036 -6.91033,6.91036 z"
         id="path3968" />
      <g
         id="g4002">
        <path
           inkscape:connector-curvature="0"
           id="path3974"
           d="m 950.43588,2931.7852 c 0,12.4021 -10.0539,22.456 -22.45602,22.456 -12.40212,0 -22.45602,-10.0539 -22.45602,-22.456 0,-12.4022 10.0539,-22.4561 22.45602,-22.4561 12.40212,0 22.45602,10.0539 22.45602,22.4561 z"
           style="fill:none;stroke:#000080;stroke-width:0.99921262;stroke-miterlimit:4;stroke-opacity:1"
           transform="matrix(0.23153193,0,0,0.23153193,195.50589,-849.42231)" />
        <path
           inkscape:connector-curvature="0"
           id="path3976"
           d="m 950.43588,2931.7852 c 0,12.4021 -10.0539,22.456 -22.45602,22.456 -12.40212,0 -22.45602,-10.0539 -22.45602,-22.456 0,-12.4022 10.0539,-22.4561 22.45602,-22.4561 12.40212,0 22.45602,10.0539 22.45602,22.4561 z"
           style="fill:none;stroke:#000080;stroke-width:0.99921262;stroke-miterlimit:4;stroke-opacity:1"
           transform="matrix(0.23153193,0,0,0.23153193,195.50589,-675.80027)" />
        <path
           inkscape:connector-curvature="0"
           id="path3978"
           d="m 950.43588,2931.7852 c 0,12.4021 -10.0539,22.456 -22.45602,22.456 -12.40212,0 -22.45602,-10.0539 -22.45602,-22.456 0,-12.4022 10.0539,-22.4561 22.45602,-22.4561 12.40212,0 22.45602,10.0539 22.45602,22.4561 z"
           style="fill:none;stroke:#000080;stroke-width:0.99921262;stroke-miterlimit:4;stroke-opacity:1"
           transform="matrix(0.23153193,0,0,0.23153193,401.0177,-675.80027)" />
        <path
           inkscape:connector-curvature="0"
           id="path3980"
           d="m 950.43588,2931.7852 c 0,12.4021 -10.0539,22.456 -22.45602,22.456 -12.40212,0 -22.45602,-10.0539 -22.45602,-22.456 0,-12.4022 10.0539,-22.4561 22.45602,-22.4561 12.40212,0 22.45602,10.0539 22.45602,22.4561 z"
           style="fill:none;stroke:#000080;stroke-width:0.99921262;stroke-miterlimit:4;stroke-opacity:1"
           transform="matrix(0.23153193,0,0,0.23153193,401.0177,-849.42231)" />
      </g>
      <path
         transform="matrix(0.39430137,0,0,0.42001673,556.28812,-1396.6491)"
         inkscape:connector-curvature="0"
         id="path4012"
         d="m 331.76735,2994.9246 c 0,6.7213 -5.80408,12.1701 -12.96379,12.1701 -7.15971,0 -12.9638,-5.4488 -12.9638,-12.1701 0,-6.7214 5.80409,-12.1701 12.9638,-12.1701 7.15971,0 12.96379,5.4487 12.96379,12.1701 z"
         style="fill:none;stroke:#000080;stroke-width:0.99921262;stroke-miterlimit:4;stroke-opacity:1" />
      <path
         transform="matrix(0.39430137,0,0,0.42001673,363.17788,-1306.2948)"
         inkscape:connector-curvature="0"
         id="path4016"
         d="m 331.76735,2994.9246 c 0,6.7213 -5.80408,12.1701 -12.96379,12.1701 -7.15971,0 -12.9638,-5.4488 -12.9638,-12.1701 0,-6.7214 5.80409,-12.1701 12.9638,-12.1701 7.15971,0 12.96379,5.4487 12.96379,12.1701 z"
         style="fill:none;stroke:#000080;stroke-width:0.99921262;stroke-miterlimit:4;stroke-opacity:1" />
      <path
         inkscape:connector-curvature="0"
         id="rect4030"
         d="m 337.75605,-119.24249 c 5.88898,0 10.62992,4.74094 10.62992,10.62992 l 0,49.606299 c 0,5.888976 -4.74094,10.629921 -10.62992,10.629921 -5.88898,0 -10.62992,-4.740945 -10.62992,-10.629921 l 0,-49.606299 c 0,-5.88898 4.74094,-10.62992 10.62992,-10.62992 z"
         style="fill:none;stroke:#000080;stroke-width:0.99921262;stroke-miterlimit:4;stroke-opacity:1" />
      <path
         inkscape:connector-curvature="0"
         id="rect3083"
         d="m 220.21745,364.71682 0,97.2187 70,0 0,-10.2813 21.21875,0 0,-76.6874 -21.21875,0 0,-10.25 -70,0 z"
         style="fill:none;stroke:#000080;stroke-width:0.87628669;stroke-miterlimit:4;stroke-opacity:1" />
      <path
         style="fill:none;stroke:#000080;stroke-width:0.87628669;stroke-miterlimit:4;stroke-opacity:1"
         d="m 118.21745,364.71682 0,97.2187 70,0 0,-10.2813 21.21875,0 0,-76.6874 -21.21875,0 0,-10.25 -70,0 z"
         id="path3094"
         inkscape:connector-curvature="0" />
    </g>
  </g>
</svg>
